  0
SECTION
  2
HEADER
  9
$ACADVER
  1
AC1014
  9
$ACADMAINTVER
 70
     9
  9
$DWGCODEPAGE
  3
ANSI_1252
  9
$INSBASE
 10
0.0
 20
0.0
 30
0.0
  9
$EXTMIN
 10
2.0
 20
1.0
 30
0.0
  9
$EXTMAX
 10
841.0
 20
593.0
 30
0.0
  9
$LIMMIN
 10
0.0
 20
0.0
  9
$LIMMAX
 10
420.0
 20
297.0
  9
$ORTHOMODE
 70
     0
  9
$REGENMODE
 70
     1
  9
$FILLMODE
 70
     1
  9
$QTEXTMODE
 70
     0
  9
$MIRRTEXT
 70
     1
  9
$DRAGMODE
 70
     2
  9
$LTSCALE
 40
12.7
  9
$OSMODE
 70
    23
  9
$ATTMODE
 70
     1
  9
$TEXTSIZE
 40
3.5
  9
$TRACEWID
 40
1.0
  9
$TEXTSTYLE
  7
ONSHAPE-STANDARD
  9
$CLAYER
  8
0
  9
$CELTYPE
  6
BYLAYER
  9
$CECOLOR
 62
   256
  9
$CELTSCALE
 40
1.0
  9
$DELOBJ
 70
     1
  9
$DISPSILH
 70
     0
  9
$DIMSCALE
 40
1.0
  9
$DIMASZ
 40
2.5
  9
$DIMEXO
 40
0.625
  9
$DIMDLI
 40
3.75
  9
$DIMRND
 40
0.0
  9
$DIMDLE
 40
0.0
  9
$DIMEXE
 40
1.25
  9
$DIMTP
 40
0.0
  9
$DIMTM
 40
0.0
  9
$DIMTXT
 40
3.5
  9
$DIMCEN
 40
2.5
  9
$DIMTSZ
 40
0.0
  9
$DIMTOL
 70
     0
  9
$DIMLIM
 70
     0
  9
$DIMTIH
 70
     0
  9
$DIMTOH
 70
     0
  9
$DIMSE1
 70
     0
  9
$DIMSE2
 70
     0
  9
$DIMTAD
 70
     1
  9
$DIMZIN
 70
     8
  9
$DIMBLK
  1

  9
$DIMASO
 70
     1
  9
$DIMSHO
 70
     1
  9
$DIMPOST
  1

  9
$DIMAPOST
  1

  9
$DIMALT
 70
     0
  9
$DIMALTD
 70
     3
  9
$DIMALTF
 40
0.03937
  9
$DIMLFAC
 40
1.0
  9
$DIMTOFL
 70
     1
  9
$DIMTVP
 40
0.0
  9
$DIMTIX
 70
     0
  9
$DIMSOXD
 70
     0
  9
$DIMSAH
 70
     0
  9
$DIMBLK1
  1

  9
$DIMBLK2
  1

  9
$DIMSTYLE
  2
ONSHAPE-ISO-25
  9
$DIMCLRD
 70
     7
  9
$DIMCLRE
 70
     7
  9
$DIMCLRT
 70
     7
  9
$DIMTFAC
 40
1.0
  9
$DIMGAP
 40
0.625
  9
$DIMJUST
 70
     0
  9
$DIMSD1
 70
     0
  9
$DIMSD2
 70
     0
  9
$DIMTOLJ
 70
     0
  9
$DIMTZIN
 70
     8
  9
$DIMALTZ
 70
     8
  9
$DIMALTTZ
 70
     0
  9
$DIMFIT
 70
     3
  9
$DIMUPT
 70
     1
  9
$DIMUNIT
 70
     2
  9
$DIMDEC
 70
     2
  9
$DIMTDEC
 70
     2
  9
$DIMALTU
 70
     2
  9
$DIMALTTD
 70
     3
  9
$DIMTXSTY
  7
ONSHAPE-STANDARD-DIMENSION
  9
$DIMAUNIT
 70
     0
  9
$LUNITS
 70
     2
  9
$LUPREC
 70
     4
  9
$SKETCHINC
 40
1.0
  9
$FILLETRAD
 40
10.0
  9
$AUNITS
 70
     0
  9
$AUPREC
 70
     0
  9
$MENU
  1
.
  9
$ELEVATION
 40
0.0
  9
$PELEVATION
 40
0.0
  9
$THICKNESS
 40
0.0
  9
$LIMCHECK
 70
     0
  9
$CHAMFERA
 40
0.0
  9
$CHAMFERB
 40
0.0
  9
$CHAMFERC
 40
0.0
  9
$CHAMFERD
 40
0.0
  9
$SKPOLY
 70
     0
  9
$TDCREATE
 40
2460123.097629005
  9
$TDUPDATE
 40
2460123.097630162
  9
$TDINDWG
 40
0.0
  9
$TDUSRTIMER
 40
0.0
  9
$USRTIMER
 70
     1
  9
$ANGBASE
 50
0.0
  9
$ANGDIR
 70
     0
  9
$PDMODE
 70
    33
  9
$PDSIZE
 40
1.0
  9
$PLINEWID
 40
0.0
  9
$COORDS
 70
     1
  9
$SPLFRAME
 70
     0
  9
$SPLINETYPE
 70
     6
  9
$SPLINESEGS
 70
     8
  9
$ATTDIA
 70
     0
  9
$ATTREQ
 70
     1
  9
$HANDLING
 70
     1
  9
$HANDSEED
  5
2AB
  9
$SURFTAB1
 70
     6
  9
$SURFTAB2
 70
     6
  9
$SURFTYPE
 70
     6
  9
$SURFU
 70
     6
  9
$SURFV
 70
     6
  9
$UCSNAME
  2

  9
$UCSORG
 10
0.0
 20
0.0
 30
0.0
  9
$UCSXDIR
 10
1.0
 20
0.0
 30
0.0
  9
$UCSYDIR
 10
0.0
 20
1.0
 30
0.0
  9
$PUCSNAME
  2

  9
$PUCSORG
 10
0.0
 20
0.0
 30
0.0
  9
$PUCSXDIR
 10
1.0
 20
0.0
 30
0.0
  9
$PUCSYDIR
 10
0.0
 20
1.0
 30
0.0
  9
$USERI1
 70
     0
  9
$USERI2
 70
     0
  9
$USERI3
 70
     0
  9
$USERI4
 70
     0
  9
$USERI5
 70
     0
  9
$USERR1
 40
0.0
  9
$USERR2
 40
0.0
  9
$USERR3
 40
0.0
  9
$USERR4
 40
0.0
  9
$USERR5
 40
0.0
  9
$WORLDVIEW
 70
     1
  9
$SHADEDGE
 70
     3
  9
$SHADEDIF
 70
    70
  9
$TILEMODE
 70
     1
  9
$MAXACTVP
 70
    64
  9
$PINSBASE
 10
0.0
 20
0.0
 30
0.0
  9
$PLIMCHECK
 70
     0
  9
$PEXTMIN
 10
1.000000000000000E+20
 20
1.000000000000000E+20
 30
1.000000000000000E+20
  9
$PEXTMAX
 10
-1.000000000000000E+20
 20
-1.000000000000000E+20
 30
-1.000000000000000E+20
  9
$PLIMMIN
 10
0.0
 20
0.0
  9
$PLIMMAX
 10
420.0
 20
297.0
  9
$UNITMODE
 70
     0
  9
$VISRETAIN
 70
     1
  9
$PLINEGEN
 70
     0
  9
$PSLTSCALE
 70
     1
  9
$TREEDEPTH
 70
  3020
  9
$PICKSTYLE
 70
     1
  9
$CMLSTYLE
  2
STANDARD
  9
$CMLJUST
 70
     0
  9
$CMLSCALE
 40
20.0
  9
$PROXYGRAPHICS
 70
     1
  9
$MEASUREMENT
 70
     1
  0
ENDSEC
  0
SECTION
  2
CLASSES
  0
CLASS
  1
ACDBDICTIONARYWDFLT
  2
AcDbDictionaryWithDefault
  3
ObjectDBX Classes
 90
        0
280
     0
281
     0
  0
CLASS
  1
VISUALSTYLE
  2
AcDbVisualStyle
  3
ObjectDBX Classes
 90
     4095
280
     0
281
     0
  0
CLASS
  1
MATERIAL
  2
AcDbMaterial
  3
ObjectDBX Classes
 90
     1153
280
     0
281
     0
  0
CLASS
  1
SCALE
  2
AcDbScale
  3
ObjectDBX Classes
 90
     1153
280
     0
281
     0
  0
CLASS
  1
TABLESTYLE
  2
AcDbTableStyle
  3
ObjectDBX Classes
 90
     4095
280
     0
281
     0
  0
CLASS
  1
MLEADERSTYLE
  2
AcDbMLeaderStyle
  3
ACDB_MLEADERSTYLE_CLASS
 90
     4095
280
     0
281
     0
  0
CLASS
  1
SUN
  2
AcDbSun
  3
SCENEOE
 90
     1153
280
     0
281
     0
  0
CLASS
  1
DICTIONARYVAR
  2
AcDbDictionaryVar
  3
ObjectDBX Classes
 90
        0
280
     0
281
     0
  0
CLASS
  1
FIELD
  2
AcDbField
  3
ObjectDBX Classes
 90
     1152
280
     0
281
     0
  0
CLASS
  1
FIELDLIST
  2
AcDbFieldList
  3
ObjectDBX Classes
 90
     1152
280
     0
281
     0
  0
CLASS
  1
XRECORD
  2
AcDbXrecord
  3
ObjectDBX Classes
 90
        0
280
     0
281
     0
  0
CLASS
  1
LWPOLYLINE
  2
AcDbPolyline
  3
ObjectDBX Classes
 90
        0
280
     0
281
     1
  0
CLASS
  1
HATCH
  2
AcDbHatch
  3
ObjectDBX Classes
 90
        0
280
     0
281
     1
  0
CLASS
  1
ACDBPLACEHOLDER
  2
AcDbPlaceHolder
  3
ObjectDBX Classes
 90
        0
280
     0
281
     0
  0
CLASS
  1
LAYOUT
  2
AcDbLayout
  3
ObjectDBX Classes
 90
        0
280
     0
281
     0
  0
ENDSEC
  0
SECTION
  2
TABLES
  0
TABLE
  2
VPORT
  5
8
102
{ACAD_XDICTIONARY
360
2A0
102
}
330
0
100
AcDbSymbolTable
 70
     1
  0
VPORT
  5
29
330
8
100
AcDbSymbolTableRecord
100
AcDbViewportTableRecord
  2
*ACTIVE
 70
     0
 10
0.0
 20
0.0
 11
1.0
 21
1.0
 12
421.5
 22
300.0378065395095
 13
0.0
 23
0.0
 14
10.0
 24
10.0
 15
10.0
 25
10.0
 16
0.0
 26
0.0
 36
1.0
 17
0.0
 27
0.0
 37
0.0
 40
610.0371253405995
 41
1.402832654688345
 42
50.0
 43
0.0
 44
0.0
 50
0.0
 51
0.0
 71
     0
 72
   100
 73
     1
 74
     3
 75
     0
 76
     0
 77
     0
 78
     0
  0
ENDTAB
  0
TABLE
  2
LTYPE
  5
5
330
0
100
AcDbSymbolTable
 70
     1
  0
LTYPE
  5
14
330
5
100
AcDbSymbolTableRecord
100
AcDbLinetypeTableRecord
  2
BYBLOCK
 70
     0
  3

 72
    65
 73
     0
 40
0.0
  0
LTYPE
  5
15
330
5
100
AcDbSymbolTableRecord
100
AcDbLinetypeTableRecord
  2
BYLAYER
 70
     0
  3

 72
    65
 73
     0
 40
0.0
  0
LTYPE
  5
16
330
5
100
AcDbSymbolTableRecord
100
AcDbLinetypeTableRecord
  2
CONTINUOUS
 70
     0
  3
Solid line
 72
    65
 73
     0
 40
0.0
  0
ENDTAB
  0
TABLE
  2
LAYER
  5
2
330
0
100
AcDbSymbolTable
 70
     6
  0
LAYER
  5
10
330
2
100
AcDbSymbolTableRecord
100
AcDbLayerTableRecord
  2
0
 70
     0
 62
     7
  6
CONTINUOUS
  0
LAYER
  5
73
330
2
100
AcDbSymbolTableRecord
100
AcDbLayerTableRecord
  2
VISIBLE
 70
     0
 62
     7
  6
CONTINUOUS
  0
LAYER
  5
132
330
2
100
AcDbSymbolTableRecord
100
AcDbLayerTableRecord
  2
BORDER_FRAME
 70
     0
 62
     7
  6
CONTINUOUS
  0
LAYER
  5
138
330
2
100
AcDbSymbolTableRecord
100
AcDbLayerTableRecord
  2
BORDER_ZONES
 70
     0
 62
     7
  6
CONTINUOUS
  0
LAYER
  5
186
330
2
100
AcDbSymbolTableRecord
100
AcDbLayerTableRecord
  2
TITLE_BLOCK
 70
     0
 62
     7
  6
CONTINUOUS
  0
LAYER
  5
220
330
2
100
AcDbSymbolTableRecord
100
AcDbLayerTableRecord
  2
ANNOTATION_TEXT
 70
     0
 62
     7
  6
CONTINUOUS
  0
ENDTAB
  0
TABLE
  2
STYLE
  5
3
330
0
100
AcDbSymbolTable
 70
    32
  0
STYLE
  5
11
330
3
100
AcDbSymbolTableRecord
100
AcDbTextStyleTableRecord
  2
STANDARD
 70
     0
 40
0.0
 41
1.0
 50
0.0
 71
     0
 42
3.5
  3
txt
  4

  0
STYLE
  5
70
330
3
100
AcDbSymbolTableRecord
100
AcDbTextStyleTableRecord
  2
ONSHAPE-STANDARD
 70
     0
 40
0.0
 41
1.0
 50
0.0
 71
     0
 42
3.5
  3
NotoSans-Regular.ttf
  4

1001
ACAD
1000
Noto Sans
1071
        0
  0
STYLE
  5
72
330
3
100
AcDbSymbolTableRecord
100
AcDbTextStyleTableRecord
  2
ONSHAPE-STANDARD-DIMENSION
 70
     0
 40
0.0
 41
1.0
 50
0.0
 71
     0
 42
3.5
  3

  4

1001
ACAD
1000
Noto Sans
1071
        0
  0
STYLE
  5
1BB
330
3
100
AcDbSymbolTableRecord
100
AcDbTextStyleTableRecord
  2
ONSHAPE-STANDARD-FIELDS
 70
     0
 40
0.0
 41
1.0
 50
0.0
 71
     0
 42
3.5
  3

  4

1001
ACAD
1000
Noto Sans
1071
        0
  0
STYLE
  5
222
330
3
100
AcDbSymbolTableRecord
100
AcDbTextStyleTableRecord
  2
ONSHAPE-STANDARD-VIEW-LABE
 70
     0
 40
3.5
 41
1.0
 50
0.0
 71
     0
 42
3.5
  3
NotoSans-Regular.ttf
  4

1001
ACAD
1000
Noto Sans
1071
        0
  0
STYLE
  5
22E
330
3
100
AcDbSymbolTableRecord
100
AcDbTextStyleTableRecord
  2
ONSHAPE-STANDARD-BOLD
 70
     0
 40
0.0
 41
1.0
 50
0.0
 71
     0
 42
3.5
  3
NotoSans-Bold.ttf
  4

1001
ACAD
1000
Noto Sans
1071
 33554432
  0
STYLE
  5
22F
330
3
100
AcDbSymbolTableRecord
100
AcDbTextStyleTableRecord
  2
ONSHAPE-STANDARD-TCFIELDS
 70
     0
 40
0.0
 41
1.0
 50
0.0
 71
     0
 42
3.5
  3
NotoSansTC-Regular.otf
  4

1001
ACAD
1000
Noto Sans TC
1071
        0
  0
STYLE
  5
230
330
3
100
AcDbSymbolTableRecord
100
AcDbTextStyleTableRecord
  2
ONSHAPE-STANDARD-SCFIELDS
 70
     0
 40
0.0
 41
1.0
 50
0.0
 71
     0
 42
3.5
  3
NotoSansSC-Regular.otf
  4

1001
ACAD
1000
Noto Sans SC
1071
        0
  0
STYLE
  5
231
330
3
100
AcDbSymbolTableRecord
100
AcDbTextStyleTableRecord
  2
ONSHAPE-STANDARD-KOREANFIE
 70
     0
 40
0.0
 41
1.0
 50
0.0
 71
     0
 42
3.5
  3
NotoSansKR-Regular.otf
  4

1001
ACAD
1000
Noto Sans KR
1071
        0
  0
STYLE
  5
232
330
3
100
AcDbSymbolTableRecord
100
AcDbTextStyleTableRecord
  2
ONSHAPE-STANDARD-JAPANESEF
 70
     0
 40
0.0
 41
1.0
 50
0.0
 71
     0
 42
3.5
  3
NotoSansJP-Regular.otf
  4

1001
ACAD
1000
Noto Sans JP
1071
        0
  0
STYLE
  5
234
330
3
100
AcDbSymbolTableRecord
100
AcDbTextStyleTableRecord
  2
TTFSTYLE
 70
     0
 40
0.0
 41
1.0
 50
0.0
 71
     0
 42
3.5
  3
Verdana.ttf
  4

1001
ACAD
1000
Verdana
1071
       34
  0
STYLE
  5
235
330
3
100
AcDbSymbolTableRecord
100
AcDbTextStyleTableRecord
  2
ONSHAPE-STANDARD-GTOLERANC
 70
     0
 40
0.0
 41
1.0
 50
0.0
 71
     0
 42
3.5
  3

  4

1001
ACAD
1000
Noto Sans
1071
        0
  0
STYLE
  5
236
330
3
100
AcDbSymbolTableRecord
100
AcDbTextStyleTableRecord
  2
ONSHAPE-STANDARD-TABLE-DAT
 70
     0
 40
0.0
 41
1.0
 50
0.0
 71
     0
 42
3.5
  3
NotoSans-Regular.ttf
  4

1001
ACAD
1000
Noto Sans
1071
        0
  0
STYLE
  5
237
330
3
100
AcDbSymbolTableRecord
100
AcDbTextStyleTableRecord
  2
ONSHAPE-STANDARD-TABLE-TIT
 70
     0
 40
0.0
 41
1.0
 50
0.0
 71
     0
 42
3.5
  3
NotoSans-Bold.ttf
  4

1001
ACAD
1000
Noto Sans
1071
 33554432
  0
STYLE
  5
238
330
3
100
AcDbSymbolTableRecord
100
AcDbTextStyleTableRecord
  2
ONSHAPE-STANDARD-TABLE-HEA
 70
     0
 40
0.0
 41
1.0
 50
0.0
 71
     0
 42
3.5
  3
NotoSans-Bold.ttf
  4

1001
ACAD
1000
Noto Sans
1071
 33554432
  0
STYLE
  5
239
330
3
100
AcDbSymbolTableRecord
100
AcDbTextStyleTableRecord
  2
ONSHAPE-STANDARD-BOMTABLE-
 70
     0
 40
0.0
 41
1.0
 50
0.0
 71
     0
 42
3.5
  3
NotoSans-Regular.ttf
  4

1001
ACAD
1000
Noto Sans
1071
        0
  0
STYLE
  5
23A
330
3
100
AcDbSymbolTableRecord
100
AcDbTextStyleTableRecord
  2
ONSHAPE-STANDARD-BOMTABLE0
 70
     0
 40
0.0
 41
1.0
 50
0.0
 71
     0
 42
3.5
  3
NotoSans-Bold.ttf
  4

1001
ACAD
1000
Noto Sans
1071
 33554432
  0
STYLE
  5
23B
330
3
100
AcDbSymbolTableRecord
100
AcDbTextStyleTableRecord
  2
ONSHAPE-STANDARD-BOMTABLE1
 70
     0
 40
0.0
 41
1.0
 50
0.0
 71
     0
 42
3.5
  3
NotoSans-Bold.ttf
  4

1001
ACAD
1000
Noto Sans
1071
 33554432
  0
STYLE
  5
23C
330
3
100
AcDbSymbolTableRecord
100
AcDbTextStyleTableRecord
  2
ONSHAPE-STANDARD-NOTESTYLE
 70
     0
 40
3.5
 41
1.0
 50
0.0
 71
     0
 42
3.5
  3
Noto Sans
  4

1001
ACAD
1000
Noto Sans
1071
        0
  0
STYLE
  5
23D
330
3
100
AcDbSymbolTableRecord
100
AcDbTextStyleTableRecord
  2
ONSHAPE-DETAIL-VIEW-LEADER
 70
     0
 40
3.5
 41
1.0
 50
0.0
 71
     0
 42
3.5
  3
Noto Sans
  4

1001
ACAD
1000
Noto Sans
1071
        0
  0
STYLE
  5
23E
330
3
100
AcDbSymbolTableRecord
100
AcDbTextStyleTableRecord
  2
ONSHAPE-STANDARD-HOLE-CALL
 70
     0
 40
3.5
 41
1.0
 50
0.0
 71
     0
 42
3.5
  3
Noto Sans
  4

1001
ACAD
1000
Noto Sans
1071
        0
  0
STYLE
  5
23F
330
3
100
AcDbSymbolTableRecord
100
AcDbTextStyleTableRecord
  2
ONSHAPE-STANDARD-HOLETABLE
 70
     0
 40
0.0
 41
1.0
 50
0.0
 71
     0
 42
3.5
  3
NotoSans-Regular.ttf
  4

1001
ACAD
1000
Noto Sans
1071
        0
  0
STYLE
  5
240
330
3
100
AcDbSymbolTableRecord
100
AcDbTextStyleTableRecord
  2
ONSHAPE-STANDARD-HOLETABL0
 70
     0
 40
0.0
 41
1.0
 50
0.0
 71
     0
 42
3.5
  3
NotoSans-Bold.ttf
  4

1001
ACAD
1000
Noto Sans
1071
 33554432
  0
STYLE
  5
241
330
3
100
AcDbSymbolTableRecord
100
AcDbTextStyleTableRecord
  2
ONSHAPE-STANDARD-HOLETABL1
 70
     0
 40
0.0
 41
1.0
 50
0.0
 71
     0
 42
3.5
  3
NotoSans-Bold.ttf
  4

1001
ACAD
1000
Noto Sans
1071
 33554432
  0
STYLE
  5
242
330
3
100
AcDbSymbolTableRecord
100
AcDbTextStyleTableRecord
  2
ONSHAPE-STANDARD-HOLE-TAG
 70
     0
 40
3.5
 41
1.0
 50
0.0
 71
     0
 42
3.5
  3
Noto Sans
  4

1001
ACAD
1000
Noto Sans
1071
        0
  0
STYLE
  5
243
330
3
100
AcDbSymbolTableRecord
100
AcDbTextStyleTableRecord
  2
ONSHAPE-STANDARD-REVISIONT
 70
     0
 40
0.0
 41
1.0
 50
0.0
 71
     0
 42
3.5
  3
NotoSans-Regular.ttf
  4

1001
ACAD
1000
Noto Sans
1071
        0
  0
STYLE
  5
244
330
3
100
AcDbSymbolTableRecord
100
AcDbTextStyleTableRecord
  2
ONSHAPE-STANDARD-REVISION0
 70
     0
 40
0.0
 41
1.0
 50
0.0
 71
     0
 42
3.5
  3
NotoSans-Bold.ttf
  4

1001
ACAD
1000
Noto Sans
1071
 33554432
  0
STYLE
  5
245
330
3
100
AcDbSymbolTableRecord
100
AcDbTextStyleTableRecord
  2
ONSHAPE-STANDARD-REVISION1
 70
     0
 40
0.0
 41
1.0
 50
0.0
 71
     0
 42
3.5
  3
NotoSans-Bold.ttf
  4

1001
ACAD
1000
Noto Sans
1071
 33554432
  0
STYLE
  5
246
330
3
100
AcDbSymbolTableRecord
100
AcDbTextStyleTableRecord
  2
ONSHAPE-STANDARD-REVISION-
 70
     0
 40
3.5
 41
1.0
 50
0.0
 71
     0
 42
3.5
  3
Noto Sans
  4

1001
ACAD
1000
Noto Sans
1071
        0
  0
STYLE
  5
247
330
3
100
AcDbSymbolTableRecord
100
AcDbTextStyleTableRecord
  2
ONSHAPE-STANDARD-CUTLISTTA
 70
     0
 40
0.0
 41
1.0
 50
0.0
 71
     0
 42
3.5
  3
NotoSans-Regular.ttf
  4

1001
ACAD
1000
Noto Sans
1071
        0
  0
STYLE
  5
248
330
3
100
AcDbSymbolTableRecord
100
AcDbTextStyleTableRecord
  2
ONSHAPE-STANDARD-CUTLISTT0
 70
     0
 40
0.0
 41
1.0
 50
0.0
 71
     0
 42
3.5
  3
NotoSans-Bold.ttf
  4

1001
ACAD
1000
Noto Sans
1071
 33554432
  0
STYLE
  5
249
330
3
100
AcDbSymbolTableRecord
100
AcDbTextStyleTableRecord
  2
ONSHAPE-STANDARD-CUTLISTT1
 70
     0
 40
0.0
 41
1.0
 50
0.0
 71
     0
 42
3.5
  3
NotoSans-Bold.ttf
  4

1001
ACAD
1000
Noto Sans
1071
 33554432
  0
ENDTAB
  0
TABLE
  2
VIEW
  5
6
330
0
100
AcDbSymbolTable
 70
     0
  0
ENDTAB
  0
TABLE
  2
UCS
  5
7
330
0
100
AcDbSymbolTable
 70
     0
  0
ENDTAB
  0
TABLE
  2
APPID
  5
9
330
0
100
AcDbSymbolTable
 70
     3
  0
APPID
  5
12
330
9
100
AcDbSymbolTableRecord
100
AcDbRegAppTableRecord
  2
ACAD
 70
     0
  0
APPID
  5
224
330
9
100
AcDbSymbolTableRecord
100
AcDbRegAppTableRecord
  2
ONSHAPE_NOTES_ANNOTATION_D
 70
     0
  0
APPID
  5
2AA
330
9
100
AcDbSymbolTableRecord
100
AcDbRegAppTableRecord
  2
ACAD_MLEADERVER
 70
     0
  0
ENDTAB
  0
TABLE
  2
DIMSTYLE
  5
A
330
0
100
AcDbSymbolTable
 70
    18
  0
DIMSTYLE
105
27
330
A
100
AcDbSymbolTableRecord
100
AcDbDimStyleTableRecord
  2
ISO-25
 70
     0
  3

  4

  5

  6

  7

 40
1.0
 41
2.5
 42
0.625
 43
3.75
 44
1.25
 45
0.0
 46
0.0
 47
0.0
 48
0.0
140
2.5
141
2.5
142
0.0
143
0.03937007874016
144
1.0
145
0.0
146
1.0
147
0.625
 71
     0
 72
     0
 73
     0
 74
     0
 75
     0
 76
     0
 77
     1
 78
     8
170
     0
171
     3
172
     1
173
     0
174
     0
175
     0
176
     0
177
     0
178
     0
270
     2
271
     2
272
     2
273
     2
274
     3
340
11
275
     0
280
     0
281
     0
282
     0
283
     0
284
     8
285
     0
286
     0
287
     3
288
     0
  0
DIMSTYLE
105
71
330
A
100
AcDbSymbolTableRecord
100
AcDbDimStyleTableRecord
  2
ONSHAPE-ISO-25
 70
     0
  3

  4

  5

  6

  7

 40
1.0
 41
2.5
 42
0.625
 43
3.75
 44
1.25
 45
0.0
 46
0.0
 47
0.0
 48
0.0
140
3.5
141
2.5
142
0.0
143
0.03937
144
1.0
145
0.0
146
1.0
147
0.625
 71
     0
 72
     0
 73
     0
 74
     0
 75
     0
 76
     0
 77
     1
 78
     8
170
     0
171
     3
172
     1
173
     0
174
     0
175
     0
176
     7
177
     7
178
     7
179
     1
270
     2
271
     2
272
     2
273
     2
274
     3
340
72
275
     0
280
     0
281
     0
282
     0
283
     0
284
     8
285
     8
286
     0
287
     3
288
     1
  0
DIMSTYLE
105
24C
330
A
100
AcDbSymbolTableRecord
100
AcDbDimStyleTableRecord
  2
ISO
 70
     0
  3

  4
"
  5

  6

  7

 40
1.0
 41
3.5
 42
1.0
 43
10.0
 44
1.0
 45
0.0
 46
0.0
 47
0.1
 48
0.1
140
3.5
141
0.0
142
0.0
143
0.03937
144
1.0
145
0.0
146
0.71
147
1.5
 71
     0
 72
     0
 73
     0
 74
     0
 75
     0
 76
     0
 77
     1
 78
     8
170
     0
171
     3
172
     1
173
     0
174
     0
175
     0
176
     7
177
     7
178
     7
270
     2
271
     2
272
     3
273
     2
274
     3
340
11
275
     0
280
     0
281
     0
282
     0
283
     0
284
     8
285
     8
286
     0
287
     3
288
     1
  0
DIMSTYLE
105
24D
330
A
100
AcDbSymbolTableRecord
100
AcDbDimStyleTableRecord
  2
ISO$3
 70
     0
  3

  4
"
  5

  6

  7

 40
1.0
 41
3.5
 42
1.0
 43
10.0
 44
1.0
 45
0.0
 46
0.0
 47
0.1
 48
0.1
140
3.5
141
0.0
142
0.0
143
0.03937
144
1.0
145
0.0
146
0.71
147
1.5
 71
     0
 72
     0
 73
     0
 74
     1
 75
     0
 76
     0
 77
     1
 78
     8
170
     0
171
     3
172
     0
173
     0
174
     0
175
     0
176
     7
177
     7
178
     7
270
     2
271
     2
272
     3
273
     2
274
     3
340
11
275
     0
280
     0
281
     0
282
     0
283
     0
284
     8
285
     8
286
     0
288
     1
  0
DIMSTYLE
105
24E
330
A
100
AcDbSymbolTableRecord
100
AcDbDimStyleTableRecord
  2
ISO$4
 70
     0
  3

  4
"
  5

  6

  7

 40
1.0
 41
3.5
 42
1.0
 43
10.0
 44
1.0
 45
0.0
 46
0.0
 47
0.1
 48
0.1
140
3.5
141
0.0
142
0.0
143
0.03937
144
1.0
145
0.0
146
0.71
147
1.5
 71
     0
 72
     0
 73
     0
 74
     0
 75
     0
 76
     0
 77
     1
 78
     8
170
     0
171
     3
172
     1
173
     0
174
     0
175
     0
176
     7
177
     7
178
     7
270
     2
271
     2
272
     3
273
     2
274
     3
340
11
275
     0
280
     0
281
     0
282
     0
283
     0
284
     8
285
     8
286
     0
287
     3
288
     1
  0
DIMSTYLE
105
24F
330
A
100
AcDbSymbolTableRecord
100
AcDbDimStyleTableRecord
  2
ISO$6
 70
     0
  3

  4
"
  5

  6

  7

 40
1.0
 41
0.5
 42
1.0
 43
10.0
 44
1.0
 45
0.0
 46
0.0
 47
0.1
 48
0.1
140
3.5
141
0.0
142
0.0
143
0.03937
144
1.0
145
0.0
146
0.71
147
1.5
 71
     0
 72
     0
 73
     0
 74
     0
 75
     0
 76
     0
 77
     0
 78
     8
170
     0
171
     3
172
     1
173
     0
174
     0
175
     0
176
     7
177
     7
178
     7
270
     2
271
     2
272
     3
273
     2
274
     3
340
11
275
     0
280
     0
281
     0
282
     0
283
     0
284
     8
285
     8
286
     0
287
     3
288
     1
  0
DIMSTYLE
105
250
330
A
100
AcDbSymbolTableRecord
100
AcDbDimStyleTableRecord
  2
ISO$7
 70
     0
  3

  4
"
  5

  6

  7

 40
1.0
 41
3.5
 42
1.0
 43
10.0
 44
1.0
 45
0.0
 46
0.0
 47
0.1
 48
0.1
140
3.5
141
0.0
142
0.0
143
0.03937
144
1.0
145
0.0
146
0.71
147
1.5
 71
     0
 72
     0
 73
     0
 74
     0
 75
     0
 76
     0
 77
     1
 78
     8
170
     0
171
     3
172
     1
173
     0
174
     0
175
     0
176
     7
177
     7
178
     7
270
     2
271
     2
272
     3
273
     2
274
     3
340
11
275
     0
280
     0
281
     0
282
     0
283
     0
284
     8
285
     8
286
     0
287
     3
288
     1
  0
DIMSTYLE
105
251
330
A
100
AcDbSymbolTableRecord
100
AcDbDimStyleTableRecord
  2
ISO$SF
 70
     0
  3

  4
"
  5

  6

  7

 40
1.0
 41
3.5
 42
1.0
 43
10.0
 44
1.0
 45
0.0
 46
0.0
 47
0.1
 48
0.1
140
3.5
141
0.0
142
0.0
143
0.03937
144
1.0
145
0.0
146
0.71
147
1.5
 71
     0
 72
     0
 73
     0
 74
     0
 75
     1
 76
     1
 77
     1
 78
     8
170
     0
171
     3
172
     1
173
     0
174
     0
175
     0
176
     7
177
     7
178
     7
270
     2
271
     2
272
     3
273
     2
274
     3
340
11
275
     0
280
     0
281
     0
282
     0
283
     0
284
     8
285
     8
286
     0
287
     3
288
     1
  0
DIMSTYLE
105
252
330
A
100
AcDbSymbolTableRecord
100
AcDbDimStyleTableRecord
  2
ISO$SH
 70
     0
  3

  4
"
  5

  6

  7

 40
1.0
 41
3.5
 42
1.0
 43
10.0
 44
1.0
 45
0.0
 46
0.0
 47
0.1
 48
0.1
140
3.5
141
0.0
142
0.0
143
0.03937
144
2.0
145
0.0
146
0.71
147
1.5
 71
     0
 72
     0
 73
     0
 74
     0
 75
     1
 76
     1
 77
     1
 78
     8
170
     0
171
     3
172
     1
173
     1
174
     0
175
     0
176
     7
177
     7
178
     7
270
     2
271
     2
272
     3
273
     2
274
     3
340
11
275
     0
280
     0
281
     0
282
     0
283
     0
284
     8
285
     8
286
     0
287
     3
288
     1
  0
DIMSTYLE
105
255
330
A
100
AcDbSymbolTableRecord
100
AcDbDimStyleTableRecord
  2
ONSHAPE-ISO-25$0
 70
     0
  3

  4

  5

  6

  7

 40
1.0
 41
2.5
 42
0.625
 43
3.75
 44
1.25
 45
0.0
 46
0.0
 47
0.0
 48
0.0
140
3.5
141
2.5
142
0.0
143
0.03937
144
1.0
145
0.0
146
1.0
147
0.625
 71
     0
 72
     0
 73
     0
 74
     0
 75
     0
 76
     0
 77
     1
 78
     8
170
     0
171
     3
172
     1
173
     0
174
     0
175
     0
176
     7
177
     7
178
     7
179
     1
270
     2
271
     2
272
     2
273
     2
274
     3
340
72
275
     0
280
     0
281
     0
282
     0
283
     0
284
     8
285
     8
286
     0
287
     3
288
     1
  0
DIMSTYLE
105
256
330
A
100
AcDbSymbolTableRecord
100
AcDbDimStyleTableRecord
  2
ONSHAPE-ISO-25$2
 70
     0
  3

  4

  5

  6

  7

 40
1.0
 41
2.5
 42
0.625
 43
3.75
 44
1.25
 45
0.0
 46
0.0
 47
0.0
 48
0.0
140
3.5
141
2.5
142
0.0
143
0.03937
144
1.0
145
0.0
146
1.0
147
0.625
 71
     0
 72
     0
 73
     0
 74
     0
 75
     0
 76
     0
 77
     1
 78
     8
170
     0
171
     3
172
     1
173
     0
174
     0
175
     0
176
     7
177
     7
178
     7
179
     1
270
     2
271
     2
272
     2
273
     2
274
     3
340
72
275
     0
280
     0
281
     0
282
     0
283
     0
284
     8
285
     8
286
     0
287
     3
288
     1
  0
DIMSTYLE
105
257
330
A
100
AcDbSymbolTableRecord
100
AcDbDimStyleTableRecord
  2
ONSHAPE-ISO-25$3
 70
     0
  3

  4

  5

  6

  7

 40
1.0
 41
2.5
 42
0.625
 43
3.75
 44
1.25
 45
0.0
 46
0.0
 47
0.0
 48
0.0
140
3.5
141
0.0
142
0.0
143
0.03937
144
1.0
145
0.0
146
1.0
147
0.625
 71
     0
 72
     0
 73
     0
 74
     0
 75
     0
 76
     0
 77
     1
 78
     8
170
     0
171
     3
172
     1
173
     0
174
     0
175
     0
176
     7
177
     7
178
     7
179
     1
270
     2
271
     2
272
     2
273
     2
274
     3
340
72
275
     0
280
     0
281
     0
282
     0
283
     0
284
     8
285
     8
286
     0
287
     3
288
     1
  0
DIMSTYLE
105
258
330
A
100
AcDbSymbolTableRecord
100
AcDbDimStyleTableRecord
  2
ONSHAPE-ISO-25$4
 70
     0
  3

  4

  5

  6

  7

 40
1.0
 41
2.5
 42
0.625
 43
3.75
 44
1.25
 45
0.0
 46
0.0
 47
0.0
 48
0.0
140
3.5
141
0.0
142
0.0
143
0.03937
144
1.0
145
0.0
146
1.0
147
0.625
 71
     0
 72
     0
 73
     0
 74
     0
 75
     0
 76
     0
 77
     1
 78
     8
170
     0
171
     3
172
     1
173
     0
174
     0
175
     0
176
     7
177
     7
178
     7
179
     1
270
     2
271
     2
272
     2
273
     2
274
     3
340
72
275
     0
280
     0
281
     0
282
     0
283
     0
284
     8
285
     8
286
     0
287
     3
288
     1
  0
DIMSTYLE
105
259
330
A
100
AcDbSymbolTableRecord
100
AcDbDimStyleTableRecord
  2
ONSHAPE-ISO-25$6
 70
     0
  3

  4

  5

  6

  7

 40
1.0
 41
0.5
 42
0.625
 43
3.75
 44
1.25
 45
0.0
 46
0.0
 47
0.0
 48
0.0
140
3.5
141
2.5
142
0.0
143
0.03937
144
1.0
145
0.0
146
1.0
147
0.625
 71
     0
 72
     0
 73
     0
 74
     0
 75
     0
 76
     0
 77
     1
 78
     8
170
     0
171
     3
172
     1
173
     0
174
     0
175
     0
176
     7
177
     7
178
     7
179
     1
270
     2
271
     2
272
     2
273
     2
274
     3
340
72
275
     0
280
     0
281
     0
282
     0
283
     0
284
     8
285
     8
286
     0
287
     3
288
     1
  0
DIMSTYLE
105
25A
330
A
100
AcDbSymbolTableRecord
100
AcDbDimStyleTableRecord
  2
ONSHAPE-ISO-25$7
 70
     0
  3

  4

  5

  6

  7

 40
1.0
 41
2.5
 42
0.625
 43
3.75
 44
1.25
 45
0.0
 46
0.0
 47
0.0
 48
0.0
140
3.5
141
2.5
142
0.0
143
0.03937
144
1.0
145
0.0
146
1.0
147
0.625
 71
     0
 72
     0
 73
     0
 74
     0
 75
     0
 76
     0
 77
     1
 78
     8
170
     0
171
     3
172
     1
173
     0
174
     0
175
     0
176
     7
177
     7
178
     7
179
     1
270
     2
271
     2
272
     2
273
     2
274
     3
340
72
275
     0
280
     0
281
     0
282
     0
283
     0
284
     8
285
     8
286
     0
287
     3
288
     1
  0
DIMSTYLE
105
25B
330
A
100
AcDbSymbolTableRecord
100
AcDbDimStyleTableRecord
  2
ONSHAPE-STANDARD-GTOLERANC
 70
     0
  3

  4

  5

  6

  7

 40
1.0
 41
2.5
 42
0.625
 43
3.75
 44
1.25
 45
0.0
 46
0.0
 47
0.0
 48
0.0
140
3.5
141
2.5
142
0.0
143
0.03937
144
1.0
145
0.0
146
1.0
147
0.625
 71
     0
 72
     0
 73
     0
 74
     0
 75
     0
 76
     0
 77
     1
 78
     8
170
     0
171
     3
172
     1
173
     0
174
     0
175
     0
176
     7
177
     7
178
     7
179
     1
270
     2
271
     2
272
     2
273
     2
274
     3
340
235
275
     0
280
     0
281
     0
282
     0
283
     0
284
     8
285
     8
286
     0
287
     3
288
     1
  0
DIMSTYLE
105
25D
330
A
100
AcDbSymbolTableRecord
100
AcDbDimStyleTableRecord
  2
ONSHAPE-ORDINATESTYLE
 70
     0
  3

  4

  5

  6

  7

 40
1.0
 41
2.5
 42
0.625
 43
3.75
 44
1.25
 45
0.0
 46
0.0
 47
0.0
 48
0.0
140
3.5
141
2.5
142
0.0
143
0.03937
144
1.0
145
0.0
146
1.0
147
0.625
 71
     0
 72
     0
 73
     0
 74
     0
 75
     0
 76
     0
 77
     1
 78
     8
170
     0
171
     3
172
     1
173
     0
174
     0
175
     0
176
     7
177
     7
178
     7
179
     1
270
     2
271
     2
272
     2
273
     2
274
     3
340
72
275
     0
280
     0
281
     0
282
     0
283
     0
284
     8
285
     8
286
     0
287
     3
288
     1
  0
DIMSTYLE
105
25E
330
A
100
AcDbSymbolTableRecord
100
AcDbDimStyleTableRecord
  2
ONSHAPE-CHAMFERDIMSTYLE
 70
     0
  3

  4

  5

  6

  7

 40
1.0
 41
2.5
 42
0.625
 43
3.75
 44
1.25
 45
0.0
 46
0.0
 47
0.0
 48
0.0
140
3.5
141
2.5
142
0.0
143
0.03937
144
1.0
145
0.0
146
1.0
147
0.625
 71
     0
 72
     0
 73
     0
 74
     0
 75
     0
 76
     0
 77
     1
 78
     8
170
     0
171
     3
172
     1
173
     0
174
     0
175
     0
176
     7
177
     7
178
     7
179
     1
270
     2
271
     2
272
     2
273
     2
274
     3
340
72
275
     0
280
     0
281
     0
282
     0
283
     0
284
     8
285
     8
286
     0
287
     3
288
     1
  0
ENDTAB
  0
TABLE
  2
BLOCK_RECORD
  5
1
330
0
100
AcDbSymbolTable
 70
     0
  0
BLOCK_RECORD
  5
1F
330
1
100
AcDbSymbolTableRecord
100
AcDbBlockTableRecord
  2
*MODEL_SPACE
  0
BLOCK_RECORD
  5
1B
330
1
100
AcDbSymbolTableRecord
100
AcDbBlockTableRecord
  2
*PAPER_SPACE
  0
ENDTAB
  0
ENDSEC
  0
SECTION
  2
BLOCKS
  0
BLOCK
  5
20
330
1F
100
AcDbEntity
  8
0
100
AcDbBlockBegin
  2
*MODEL_SPACE
 70
     0
 10
0.0
 20
0.0
 30
0.0
  3
*MODEL_SPACE
  1

  0
ENDBLK
  5
21
330
1F
100
AcDbEntity
  8
0
100
AcDbBlockEnd
  0
BLOCK
  5
1C
330
1B
100
AcDbEntity
 67
     1
  8
0
100
AcDbBlockBegin
  2
*PAPER_SPACE
 70
     0
 10
0.0
 20
0.0
 30
0.0
  3
*PAPER_SPACE
  1

  0
ENDBLK
  5
1D
330
1B
100
AcDbEntity
 67
     1
  8
0
100
AcDbBlockEnd
  0
ENDSEC
  0
SECTION
  2
ENTITIES
  0
LINE
  5
75
330
1F
100
AcDbEntity
  8
VISIBLE
100
AcDbLine
 10
232.7203304028085
 20
503.0087162273884
 30
0.0
 11
232.7203304028085
 21
521.0087162273884
 31
0.0
  0
LINE
  5
76
330
1F
100
AcDbEntity
  8
VISIBLE
100
AcDbLine
 10
229.7203304028085
 20
521.0087162273884
 30
0.0
 11
232.7203304028085
 21
521.0087162273884
 31
0.0
  0
LINE
  5
77
330
1F
100
AcDbEntity
  8
VISIBLE
100
AcDbLine
 10
241.3869970694752
 20
539.0087162273884
 30
0.0
 11
241.3869970694752
 21
536.0087162273884
 31
0.0
  0
LINE
  5
78
330
1F
100
AcDbEntity
  8
VISIBLE
100
AcDbLine
 10
241.3869970694752
 20
536.0087162273884
 30
0.0
 11
253.0536637361419
 21
536.0087162273884
 31
0.0
  0
LINE
  5
79
330
1F
100
AcDbEntity
  8
VISIBLE
100
AcDbLine
 10
264.7203304028085
 20
521.0087162273884
 30
0.0
 11
261.7203304028085
 21
521.0087162273884
 31
0.0
  0
LINE
  5
7A
330
1F
100
AcDbEntity
  8
VISIBLE
100
AcDbLine
 10
261.7203304028085
 20
485.0087162273884
 30
0.0
 11
261.7203304028085
 21
467.0087162273884
 31
0.0
  0
LINE
  5
7B
330
1F
100
AcDbEntity
  8
VISIBLE
100
AcDbLine
 10
253.0536637361419
 20
449.0087162273884
 30
0.0
 11
253.0536637361419
 21
452.0087162273884
 31
0.0
  0
LINE
  5
7C
330
1F
100
AcDbEntity
  8
VISIBLE
100
AcDbLine
 10
241.3869970694752
 20
449.0087162273884
 30
0.0
 11
241.3869970694752
 21
452.0087162273884
 31
0.0
  0
LINE
  5
7D
330
1F
100
AcDbEntity
  8
VISIBLE
100
AcDbLine
 10
229.7203304028085
 20
467.0087162273884
 30
0.0
 11
232.7203304028085
 21
467.0087162273884
 31
0.0
  0
LINE
  5
7E
330
1F
100
AcDbEntity
  8
VISIBLE
100
AcDbLine
 10
232.7203304028085
 20
467.0087162273884
 30
0.0
 11
232.7203304028085
 21
485.0087162273884
 31
0.0
  0
LINE
  5
7F
330
1F
100
AcDbEntity
  8
VISIBLE
100
AcDbLine
 10
229.7203304028085
 20
485.0087162273884
 30
0.0
 11
232.7203304028085
 21
485.0087162273884
 31
0.0
  0
LINE
  5
80
330
1F
100
AcDbEntity
  8
VISIBLE
100
AcDbLine
 10
229.7203304028085
 20
503.0087162273884
 30
0.0
 11
232.7203304028085
 21
503.0087162273884
 31
0.0
  0
LINE
  5
81
330
1F
100
AcDbEntity
  8
VISIBLE
100
AcDbLine
 10
253.0536637361419
 20
539.0087162273884
 30
0.0
 11
253.0536637361419
 21
536.0087162273884
 31
0.0
  0
LINE
  5
82
330
1F
100
AcDbEntity
  8
VISIBLE
100
AcDbLine
 10
264.7203304028085
 20
485.0087162273884
 30
0.0
 11
261.7203304028085
 21
485.0087162273884
 31
0.0
  0
LINE
  5
83
330
1F
100
AcDbEntity
  8
VISIBLE
100
AcDbLine
 10
264.7203304028085
 20
539.0087162273884
 30
0.0
 11
264.7203304028085
 21
521.0087162273884
 31
0.0
  0
LINE
  5
84
330
1F
100
AcDbEntity
  8
VISIBLE
100
AcDbLine
 10
264.7203304028085
 20
503.0087162273884
 30
0.0
 11
261.7203304028085
 21
503.0087162273884
 31
0.0
  0
LINE
  5
85
330
1F
100
AcDbEntity
  8
VISIBLE
100
AcDbLine
 10
229.7203304028085
 20
467.0087162273884
 30
0.0
 11
229.7203304028085
 21
449.0087162273884
 31
0.0
  0
LINE
  5
86
330
1F
100
AcDbEntity
  8
VISIBLE
100
AcDbLine
 10
229.7203304028085
 20
449.0087162273884
 30
0.0
 11
241.3869970694752
 21
449.0087162273884
 31
0.0
  0
LINE
  5
87
330
1F
100
AcDbEntity
  8
VISIBLE
100
AcDbLine
 10
253.0536637361419
 20
539.0087162273884
 30
0.0
 11
264.7203304028085
 21
539.0087162273884
 31
0.0
  0
LINE
  5
88
330
1F
100
AcDbEntity
  8
VISIBLE
100
AcDbLine
 10
264.7203304028085
 20
503.0087162273884
 30
0.0
 11
264.7203304028085
 21
485.0087162273884
 31
0.0
  0
LINE
  5
89
330
1F
100
AcDbEntity
  8
VISIBLE
100
AcDbLine
 10
264.7203304028085
 20
467.0087162273884
 30
0.0
 11
264.7203304028085
 21
449.0087162273884
 31
0.0
  0
LINE
  5
8A
330
1F
100
AcDbEntity
  8
VISIBLE
100
AcDbLine
 10
229.7203304028085
 20
503.0087162273884
 30
0.0
 11
229.7203304028085
 21
485.0087162273884
 31
0.0
  0
LINE
  5
8B
330
1F
100
AcDbEntity
  8
VISIBLE
100
AcDbLine
 10
229.7203304028085
 20
539.0087162273884
 30
0.0
 11
229.7203304028085
 21
521.0087162273884
 31
0.0
  0
LINE
  5
8C
330
1F
100
AcDbEntity
  8
VISIBLE
100
AcDbLine
 10
253.0536637361419
 20
449.0087162273884
 30
0.0
 11
264.7203304028085
 21
449.0087162273884
 31
0.0
  0
LINE
  5
8D
330
1F
100
AcDbEntity
  8
VISIBLE
100
AcDbLine
 10
261.7203304028085
 20
521.0087162273884
 30
0.0
 11
261.7203304028085
 21
503.0087162273884
 31
0.0
  0
LINE
  5
8E
330
1F
100
AcDbEntity
  8
VISIBLE
100
AcDbLine
 10
229.7203304028085
 20
539.0087162273884
 30
0.0
 11
241.3869970694752
 21
539.0087162273884
 31
0.0
  0
LINE
  5
8F
330
1F
100
AcDbEntity
  8
VISIBLE
100
AcDbLine
 10
264.7203304028085
 20
467.0087162273884
 30
0.0
 11
261.7203304028085
 21
467.0087162273884
 31
0.0
  0
LINE
  5
90
330
1F
100
AcDbEntity
  8
VISIBLE
100
AcDbLine
 10
253.0536637361419
 20
452.0087162273884
 30
0.0
 11
241.3869970694752
 21
452.0087162273884
 31
0.0
  0
LINE
  5
91
330
1F
100
AcDbEntity
  8
VISIBLE
100
AcDbLine
 10
348.9250791674427
 20
483.4914234447242
 30
0.0
 11
348.9250791674427
 21
465.4914234447242
 31
0.0
  0
LINE
  5
92
330
1F
100
AcDbEntity
  8
VISIBLE
100
AcDbLine
 10
351.9250791674427
 20
465.4914234447242
 30
0.0
 11
348.9250791674427
 21
465.4914234447242
 31
0.0
  0
LINE
  5
93
330
1F
100
AcDbEntity
  8
VISIBLE
100
AcDbLine
 10
351.9250791674427
 20
447.4914234447242
 30
0.0
 11
340.258412500776
 21
447.4914234447242
 31
0.0
  0
LINE
  5
94
330
1F
100
AcDbEntity
  8
VISIBLE
100
AcDbLine
 10
340.258412500776
 20
450.4914234447242
 30
0.0
 11
328.5917458341094
 21
450.4914234447242
 31
0.0
  0
LINE
  5
95
330
1F
100
AcDbEntity
  8
VISIBLE
100
AcDbLine
 10
328.5917458341094
 20
447.4914234447242
 30
0.0
 11
328.5917458341094
 21
450.4914234447242
 31
0.0
  0
LINE
  5
96
330
1F
100
AcDbEntity
  8
VISIBLE
100
AcDbLine
 10
328.5917458341094
 20
447.4914234447242
 30
0.0
 11
316.9250791674427
 21
447.4914234447242
 31
0.0
  0
LINE
  5
97
330
1F
100
AcDbEntity
  8
VISIBLE
100
AcDbLine
 10
316.9250791674427
 20
465.4914234447242
 30
0.0
 11
316.9250791674427
 21
447.4914234447242
 31
0.0
  0
LINE
  5
98
330
1F
100
AcDbEntity
  8
VISIBLE
100
AcDbLine
 10
316.9250791674427
 20
465.4914234447242
 30
0.0
 11
319.9250791674427
 21
465.4914234447242
 31
0.0
  0
LINE
  5
99
330
1F
100
AcDbEntity
  8
VISIBLE
100
AcDbLine
 10
319.9250791674427
 20
465.4914234447242
 30
0.0
 11
319.9250791674427
 21
483.4914234447242
 31
0.0
  0
LINE
  5
9A
330
1F
100
AcDbEntity
  8
VISIBLE
100
AcDbLine
 10
316.9250791674427
 20
483.4914234447242
 30
0.0
 11
319.9250791674427
 21
483.4914234447242
 31
0.0
  0
LINE
  5
9B
330
1F
100
AcDbEntity
  8
VISIBLE
100
AcDbLine
 10
316.9250791674427
 20
501.4914234447243
 30
0.0
 11
316.9250791674427
 21
483.4914234447242
 31
0.0
  0
LINE
  5
9C
330
1F
100
AcDbEntity
  8
VISIBLE
100
AcDbLine
 10
316.9250791674427
 20
501.4914234447243
 30
0.0
 11
319.9250791674427
 21
501.4914234447241
 31
0.0
  0
LINE
  5
9D
330
1F
100
AcDbEntity
  8
VISIBLE
100
AcDbLine
 10
319.9250791674427
 20
501.4914234447241
 30
0.0
 11
319.9250791674427
 21
519.4914234447242
 31
0.0
  0
LINE
  5
9E
330
1F
100
AcDbEntity
  8
VISIBLE
100
AcDbLine
 10
316.9250791674427
 20
519.4914234447242
 30
0.0
 11
319.9250791674427
 21
519.4914234447242
 31
0.0
  0
LINE
  5
9F
330
1F
100
AcDbEntity
  8
VISIBLE
100
AcDbLine
 10
316.9250791674427
 20
537.4914234447242
 30
0.0
 11
316.9250791674427
 21
519.4914234447242
 31
0.0
  0
LINE
  5
A0
330
1F
100
AcDbEntity
  8
VISIBLE
100
AcDbLine
 10
328.5917458341094
 20
537.4914234447242
 30
0.0
 11
316.9250791674427
 21
537.4914234447242
 31
0.0
  0
LINE
  5
A1
330
1F
100
AcDbEntity
  8
VISIBLE
100
AcDbLine
 10
328.5917458341094
 20
534.4914234447242
 30
0.0
 11
340.258412500776
 21
534.4914234447242
 31
0.0
  0
LINE
  5
A2
330
1F
100
AcDbEntity
  8
VISIBLE
100
AcDbLine
 10
340.258412500776
 20
537.4914234447242
 30
0.0
 11
340.258412500776
 21
534.4914234447242
 31
0.0
  0
LINE
  5
A3
330
1F
100
AcDbEntity
  8
VISIBLE
100
AcDbLine
 10
351.9250791674427
 20
537.4914234447242
 30
0.0
 11
340.258412500776
 21
537.4914234447242
 31
0.0
  0
LINE
  5
A4
330
1F
100
AcDbEntity
  8
VISIBLE
100
AcDbLine
 10
351.9250791674427
 20
537.4914234447242
 30
0.0
 11
351.9250791674427
 21
519.4914234447242
 31
0.0
  0
LINE
  5
A5
330
1F
100
AcDbEntity
  8
VISIBLE
100
AcDbLine
 10
351.9250791674427
 20
519.4914234447242
 30
0.0
 11
348.9250791674427
 21
519.4914234447242
 31
0.0
  0
LINE
  5
A6
330
1F
100
AcDbEntity
  8
VISIBLE
100
AcDbLine
 10
348.9250791674427
 20
519.4914234447242
 30
0.0
 11
348.9250791674427
 21
501.4914234447243
 31
0.0
  0
LINE
  5
A7
330
1F
100
AcDbEntity
  8
VISIBLE
100
AcDbLine
 10
351.9250791674427
 20
483.4914234447242
 30
0.0
 11
348.9250791674427
 21
483.4914234447242
 31
0.0
  0
LINE
  5
A8
330
1F
100
AcDbEntity
  8
VISIBLE
100
AcDbLine
 10
351.9250791674427
 20
501.4914234447243
 30
0.0
 11
351.9250791674427
 21
483.4914234447242
 31
0.0
  0
LINE
  5
A9
330
1F
100
AcDbEntity
  8
VISIBLE
100
AcDbLine
 10
351.9250791674427
 20
465.4914234447242
 30
0.0
 11
351.9250791674427
 21
447.4914234447242
 31
0.0
  0
LINE
  5
AA
330
1F
100
AcDbEntity
  8
VISIBLE
100
AcDbLine
 10
328.5917458341094
 20
537.4914234447242
 30
0.0
 11
328.5917458341094
 21
534.4914234447242
 31
0.0
  0
LINE
  5
AB
330
1F
100
AcDbEntity
  8
VISIBLE
100
AcDbLine
 10
340.258412500776
 20
447.4914234447242
 30
0.0
 11
340.258412500776
 21
450.4914234447242
 31
0.0
  0
LINE
  5
AC
330
1F
100
AcDbEntity
  8
VISIBLE
100
AcDbLine
 10
351.9250791674427
 20
501.4914234447243
 30
0.0
 11
348.9250791674427
 21
501.4914234447243
 31
0.0
  0
LINE
  5
AD
330
1F
100
AcDbEntity
  8
VISIBLE
100
AcDbLine
 10
273.2020674502425
 20
161.3794866460324
 30
0.0
 11
276.2020674502425
 21
161.3794866460324
 31
0.0
  0
LINE
  5
AE
330
1F
100
AcDbEntity
  8
VISIBLE
100
AcDbLine
 10
273.2020674502425
 20
128.5794866460324
 30
0.0
 11
276.2020674502425
 21
128.5794866460324
 31
0.0
  0
LINE
  5
AF
330
1F
100
AcDbEntity
  8
VISIBLE
100
AcDbLine
 10
273.2020674502425
 20
95.77948664603235
 30
0.0
 11
276.2020674502425
 21
95.77948664603235
 31
0.0
  0
LINE
  5
B0
330
1F
100
AcDbEntity
  8
VISIBLE
100
AcDbLine
 10
273.2020674502425
 20
62.9794866460324
 30
0.0
 11
273.2020674502425
 21
95.77948664603235
 31
0.0
  0
LINE
  5
B1
330
1F
100
AcDbEntity
  8
VISIBLE
100
AcDbLine
 10
258.2020674502425
 20
62.9794866460324
 30
0.0
 11
258.2020674502425
 21
59.9794866460324
 31
0.0
  0
LINE
  5
B2
330
1F
100
AcDbEntity
  8
VISIBLE
100
AcDbLine
 10
258.2020674502425
 20
59.9794866460324
 30
0.0
 11
240.2020674502424
 21
59.9794866460324
 31
0.0
  0
LINE
  5
B3
330
1F
100
AcDbEntity
  8
VISIBLE
100
AcDbLine
 10
240.2020674502424
 20
62.9794866460324
 30
0.0
 11
240.2020674502424
 21
59.9794866460324
 31
0.0
  0
LINE
  5
B4
330
1F
100
AcDbEntity
  8
VISIBLE
100
AcDbLine
 10
222.2020674502424
 20
62.9794866460324
 30
0.0
 11
240.2020674502424
 21
62.9794866460324
 31
0.0
  0
LINE
  5
B5
330
1F
100
AcDbEntity
  8
VISIBLE
100
AcDbLine
 10
222.2020674502424
 20
62.9794866460324
 30
0.0
 11
222.2020674502424
 21
59.9794866460324
 31
0.0
  0
LINE
  5
B6
330
1F
100
AcDbEntity
  8
VISIBLE
100
AcDbLine
 10
222.2020674502424
 20
59.9794866460324
 30
0.0
 11
204.2020674502425
 21
59.9794866460324
 31
0.0
  0
LINE
  5
B7
330
1F
100
AcDbEntity
  8
VISIBLE
100
AcDbLine
 10
204.2020674502425
 20
62.9794866460324
 30
0.0
 11
204.2020674502425
 21
59.9794866460324
 31
0.0
  0
LINE
  5
B8
330
1F
100
AcDbEntity
  8
VISIBLE
100
AcDbLine
 10
189.2020674502424
 20
62.9794866460324
 30
0.0
 11
204.2020674502425
 21
62.9794866460324
 31
0.0
  0
LINE
  5
B9
330
1F
100
AcDbEntity
  8
VISIBLE
100
AcDbLine
 10
189.2020674502425
 20
95.77948664603235
 30
0.0
 11
189.2020674502424
 21
62.9794866460324
 31
0.0
  0
LINE
  5
BA
330
1F
100
AcDbEntity
  8
VISIBLE
100
AcDbLine
 10
189.2020674502425
 20
95.77948664603235
 30
0.0
 11
186.2020674502424
 21
95.77948664603235
 31
0.0
  0
LINE
  5
BB
330
1F
100
AcDbEntity
  8
VISIBLE
100
AcDbLine
 10
186.2020674502425
 20
128.5794866460324
 30
0.0
 11
186.2020674502424
 21
95.77948664603235
 31
0.0
  0
LINE
  5
BC
330
1F
100
AcDbEntity
  8
VISIBLE
100
AcDbLine
 10
189.2020674502425
 20
128.5794866460324
 30
0.0
 11
186.2020674502425
 21
128.5794866460324
 31
0.0
  0
LINE
  5
BD
330
1F
100
AcDbEntity
  8
VISIBLE
100
AcDbLine
 10
189.2020674502425
 20
161.3794866460324
 30
0.0
 11
189.2020674502425
 21
128.5794866460324
 31
0.0
  0
LINE
  5
BE
330
1F
100
AcDbEntity
  8
VISIBLE
100
AcDbLine
 10
189.2020674502425
 20
161.3794866460324
 30
0.0
 11
186.2020674502424
 21
161.3794866460324
 31
0.0
  0
LINE
  5
BF
330
1F
100
AcDbEntity
  8
VISIBLE
100
AcDbLine
 10
186.2020674502425
 20
194.1794866460324
 30
0.0
 11
186.2020674502424
 21
161.3794866460324
 31
0.0
  0
LINE
  5
C0
330
1F
100
AcDbEntity
  8
VISIBLE
100
AcDbLine
 10
189.2020674502425
 20
194.1794866460324
 30
0.0
 11
186.2020674502425
 21
194.1794866460324
 31
0.0
  0
LINE
  5
C1
330
1F
100
AcDbEntity
  8
VISIBLE
100
AcDbLine
 10
189.2020674502425
 20
226.9794866460324
 30
0.0
 11
189.2020674502425
 21
194.1794866460324
 31
0.0
  0
LINE
  5
C2
330
1F
100
AcDbEntity
  8
VISIBLE
100
AcDbLine
 10
204.2020674502425
 20
226.9794866460324
 30
0.0
 11
189.2020674502425
 21
226.9794866460324
 31
0.0
  0
LINE
  5
C3
330
1F
100
AcDbEntity
  8
VISIBLE
100
AcDbLine
 10
204.2020674502425
 20
226.9794866460324
 30
0.0
 11
204.2020674502425
 21
229.9794866460324
 31
0.0
  0
LINE
  5
C4
330
1F
100
AcDbEntity
  8
VISIBLE
100
AcDbLine
 10
222.2020674502425
 20
229.9794866460324
 30
0.0
 11
204.2020674502425
 21
229.9794866460324
 31
0.0
  0
LINE
  5
C5
330
1F
100
AcDbEntity
  8
VISIBLE
100
AcDbLine
 10
222.2020674502425
 20
226.9794866460324
 30
0.0
 11
222.2020674502425
 21
229.9794866460324
 31
0.0
  0
LINE
  5
C6
330
1F
100
AcDbEntity
  8
VISIBLE
100
AcDbLine
 10
240.2020674502425
 20
226.9794866460324
 30
0.0
 11
222.2020674502425
 21
226.9794866460324
 31
0.0
  0
LINE
  5
C7
330
1F
100
AcDbEntity
  8
VISIBLE
100
AcDbLine
 10
240.2020674502425
 20
226.9794866460324
 30
0.0
 11
240.2020674502425
 21
229.9794866460324
 31
0.0
  0
LINE
  5
C8
330
1F
100
AcDbEntity
  8
VISIBLE
100
AcDbLine
 10
258.2020674502425
 20
229.9794866460324
 30
0.0
 11
240.2020674502425
 21
229.9794866460324
 31
0.0
  0
LINE
  5
C9
330
1F
100
AcDbEntity
  8
VISIBLE
100
AcDbLine
 10
258.2020674502425
 20
226.9794866460324
 30
0.0
 11
258.2020674502425
 21
229.9794866460324
 31
0.0
  0
LINE
  5
CA
330
1F
100
AcDbEntity
  8
VISIBLE
100
AcDbLine
 10
273.2020674502425
 20
226.9794866460324
 30
0.0
 11
258.2020674502425
 21
226.9794866460324
 31
0.0
  0
LINE
  5
CB
330
1F
100
AcDbEntity
  8
VISIBLE
100
AcDbLine
 10
273.2020674502425
 20
194.1794866460324
 30
0.0
 11
273.2020674502425
 21
226.9794866460324
 31
0.0
  0
LINE
  5
CC
330
1F
100
AcDbEntity
  8
VISIBLE
100
AcDbLine
 10
273.2020674502425
 20
194.1794866460324
 30
0.0
 11
276.2020674502425
 21
194.1794866460324
 31
0.0
  0
LINE
  5
CD
330
1F
100
AcDbEntity
  8
VISIBLE
100
AcDbLine
 10
258.2020674502425
 20
62.9794866460324
 30
0.0
 11
273.2020674502425
 21
62.9794866460324
 31
0.0
  0
LINE
  5
CE
330
1F
100
AcDbEntity
  8
VISIBLE
100
AcDbLine
 10
276.2020674502425
 20
128.5794866460324
 30
0.0
 11
276.2020674502425
 21
95.77948664603235
 31
0.0
  0
LINE
  5
CF
330
1F
100
AcDbEntity
  8
VISIBLE
100
AcDbLine
 10
273.2020674502425
 20
128.5794866460324
 30
0.0
 11
273.2020674502425
 21
161.3794866460324
 31
0.0
  0
LINE
  5
D0
330
1F
100
AcDbEntity
  8
VISIBLE
100
AcDbLine
 10
276.2020674502425
 20
194.1794866460324
 30
0.0
 11
276.2020674502425
 21
161.3794866460324
 31
0.0
  0
LINE
  5
D1
330
1F
100
AcDbEntity
  8
VISIBLE
100
AcDbLine
 10
366.9453811502032
 20
60.93939083991057
 30
0.0
 11
366.9453811502032
 21
63.93939083991057
 31
0.0
  0
LINE
  5
D2
330
1F
100
AcDbEntity
  8
VISIBLE
100
AcDbLine
 10
366.9453811502032
 20
60.93939083991057
 30
0.0
 11
348.9453811502032
 21
60.93939083991057
 31
0.0
  0
LINE
  5
D3
330
1F
100
AcDbEntity
  8
VISIBLE
100
AcDbLine
 10
348.9453811502032
 20
60.93939083991057
 30
0.0
 11
348.9453811502032
 21
63.93939083991057
 31
0.0
  0
LINE
  5
D4
330
1F
100
AcDbEntity
  8
VISIBLE
100
AcDbLine
 10
348.9453811502032
 20
63.93939083991057
 30
0.0
 11
330.9453811502032
 21
63.93939083991057
 31
0.0
  0
LINE
  5
D5
330
1F
100
AcDbEntity
  8
VISIBLE
100
AcDbLine
 10
330.9453811502032
 20
60.93939083991057
 30
0.0
 11
330.9453811502032
 21
63.93939083991057
 31
0.0
  0
LINE
  5
D6
330
1F
100
AcDbEntity
  8
VISIBLE
100
AcDbLine
 10
330.9453811502032
 20
60.93939083991057
 30
0.0
 11
312.9453811502032
 21
60.93939083991057
 31
0.0
  0
LINE
  5
D7
330
1F
100
AcDbEntity
  8
VISIBLE
100
AcDbLine
 10
312.9453811502032
 20
60.93939083991057
 30
0.0
 11
312.9453811502032
 21
63.93939083991057
 31
0.0
  0
LINE
  5
D8
330
1F
100
AcDbEntity
  8
VISIBLE
100
AcDbLine
 10
312.9453811502032
 20
63.93939083991057
 30
0.0
 11
297.9453811502032
 21
63.93939083991057
 31
0.0
  0
LINE
  5
D9
330
1F
100
AcDbEntity
  8
VISIBLE
100
AcDbLine
 10
297.9453811502032
 20
63.93939083991057
 30
0.0
 11
297.9453811502032
 21
96.73939083991064
 31
0.0
  0
LINE
  5
DA
330
1F
100
AcDbEntity
  8
VISIBLE
100
AcDbLine
 10
294.9453811502031
 20
96.73939083991064
 30
0.0
 11
297.9453811502032
 21
96.73939083991064
 31
0.0
  0
LINE
  5
DB
330
1F
100
AcDbEntity
  8
VISIBLE
100
AcDbLine
 10
294.9453811502031
 20
96.73939083991064
 30
0.0
 11
294.9453811502032
 21
129.5393908399106
 31
0.0
  0
LINE
  5
DC
330
1F
100
AcDbEntity
  8
VISIBLE
100
AcDbLine
 10
294.9453811502032
 20
129.5393908399106
 30
0.0
 11
297.9453811502032
 21
129.5393908399106
 31
0.0
  0
LINE
  5
DD
330
1F
100
AcDbEntity
  8
VISIBLE
100
AcDbLine
 10
297.9453811502032
 20
129.5393908399106
 30
0.0
 11
297.9453811502032
 21
162.3393908399106
 31
0.0
  0
LINE
  5
DE
330
1F
100
AcDbEntity
  8
VISIBLE
100
AcDbLine
 10
294.9453811502031
 20
162.3393908399106
 30
0.0
 11
297.9453811502032
 21
162.3393908399106
 31
0.0
  0
LINE
  5
DF
330
1F
100
AcDbEntity
  8
VISIBLE
100
AcDbLine
 10
294.9453811502031
 20
162.3393908399106
 30
0.0
 11
294.9453811502032
 21
195.1393908399106
 31
0.0
  0
LINE
  5
E0
330
1F
100
AcDbEntity
  8
VISIBLE
100
AcDbLine
 10
294.9453811502032
 20
195.1393908399106
 30
0.0
 11
297.9453811502032
 21
195.1393908399106
 31
0.0
  0
LINE
  5
E1
330
1F
100
AcDbEntity
  8
VISIBLE
100
AcDbLine
 10
297.9453811502032
 20
195.1393908399106
 30
0.0
 11
297.9453811502032
 21
227.9393908399106
 31
0.0
  0
LINE
  5
E2
330
1F
100
AcDbEntity
  8
VISIBLE
100
AcDbLine
 10
297.9453811502032
 20
227.9393908399106
 30
0.0
 11
312.9453811502032
 21
227.9393908399106
 31
0.0
  0
LINE
  5
E3
330
1F
100
AcDbEntity
  8
VISIBLE
100
AcDbLine
 10
312.9453811502032
 20
230.9393908399106
 30
0.0
 11
312.9453811502032
 21
227.9393908399106
 31
0.0
  0
LINE
  5
E4
330
1F
100
AcDbEntity
  8
VISIBLE
100
AcDbLine
 10
330.9453811502032
 20
230.9393908399106
 30
0.0
 11
312.9453811502032
 21
230.9393908399106
 31
0.0
  0
LINE
  5
E5
330
1F
100
AcDbEntity
  8
VISIBLE
100
AcDbLine
 10
330.9453811502032
 20
230.9393908399106
 30
0.0
 11
330.9453811502032
 21
227.9393908399106
 31
0.0
  0
LINE
  5
E6
330
1F
100
AcDbEntity
  8
VISIBLE
100
AcDbLine
 10
330.9453811502032
 20
227.9393908399106
 30
0.0
 11
348.9453811502032
 21
227.9393908399106
 31
0.0
  0
LINE
  5
E7
330
1F
100
AcDbEntity
  8
VISIBLE
100
AcDbLine
 10
348.9453811502032
 20
230.9393908399106
 30
0.0
 11
348.9453811502032
 21
227.9393908399106
 31
0.0
  0
LINE
  5
E8
330
1F
100
AcDbEntity
  8
VISIBLE
100
AcDbLine
 10
366.9453811502032
 20
230.9393908399106
 30
0.0
 11
348.9453811502032
 21
230.9393908399106
 31
0.0
  0
LINE
  5
E9
330
1F
100
AcDbEntity
  8
VISIBLE
100
AcDbLine
 10
366.9453811502032
 20
230.9393908399106
 30
0.0
 11
366.9453811502032
 21
227.9393908399106
 31
0.0
  0
LINE
  5
EA
330
1F
100
AcDbEntity
  8
VISIBLE
100
AcDbLine
 10
366.9453811502032
 20
227.9393908399106
 30
0.0
 11
381.9453811502032
 21
227.9393908399106
 31
0.0
  0
LINE
  5
EB
330
1F
100
AcDbEntity
  8
VISIBLE
100
AcDbLine
 10
381.9453811502032
 20
227.9393908399106
 30
0.0
 11
381.9453811502032
 21
195.1393908399106
 31
0.0
  0
LINE
  5
EC
330
1F
100
AcDbEntity
  8
VISIBLE
100
AcDbLine
 10
384.9453811502032
 20
195.1393908399106
 30
0.0
 11
381.9453811502032
 21
195.1393908399106
 31
0.0
  0
LINE
  5
ED
330
1F
100
AcDbEntity
  8
VISIBLE
100
AcDbLine
 10
384.9453811502032
 20
162.3393908399106
 30
0.0
 11
381.9453811502032
 21
162.3393908399106
 31
0.0
  0
LINE
  5
EE
330
1F
100
AcDbEntity
  8
VISIBLE
100
AcDbLine
 10
381.9453811502032
 20
162.3393908399106
 30
0.0
 11
381.9453811502032
 21
129.5393908399106
 31
0.0
  0
LINE
  5
EF
330
1F
100
AcDbEntity
  8
VISIBLE
100
AcDbLine
 10
384.9453811502032
 20
129.5393908399106
 30
0.0
 11
381.9453811502032
 21
129.5393908399106
 31
0.0
  0
LINE
  5
F0
330
1F
100
AcDbEntity
  8
VISIBLE
100
AcDbLine
 10
384.9453811502032
 20
96.73939083991064
 30
0.0
 11
381.9453811502032
 21
96.73939083991064
 31
0.0
  0
LINE
  5
F1
330
1F
100
AcDbEntity
  8
VISIBLE
100
AcDbLine
 10
381.9453811502032
 20
96.73939083991064
 30
0.0
 11
381.9453811502032
 21
63.93939083991057
 31
0.0
  0
CIRCLE
  5
F2
330
1F
100
AcDbEntity
  8
VISIBLE
100
AcDbCircle
 10
341.5714240228705
 20
206.0766788142682
 30
0.0
 40
5.000000000000001
  0
CIRCLE
  5
F3
330
1F
100
AcDbEntity
  8
VISIBLE
100
AcDbCircle
 10
341.5714240228705
 20
126.0766788142682
 30
0.0
 40
5.000000000000001
  0
LINE
  5
F4
330
1F
100
AcDbEntity
  8
VISIBLE
100
AcDbLine
 10
381.9453811502032
 20
63.93939083991057
 30
0.0
 11
366.9453811502032
 21
63.93939083991057
 31
0.0
  0
LINE
  5
F5
330
1F
100
AcDbEntity
  8
VISIBLE
100
AcDbLine
 10
384.9453811502032
 20
96.73939083991064
 30
0.0
 11
384.9453811502032
 21
129.5393908399106
 31
0.0
  0
LINE
  5
F6
330
1F
100
AcDbEntity
  8
VISIBLE
100
AcDbLine
 10
384.9453811502032
 20
162.3393908399106
 30
0.0
 11
384.9453811502032
 21
195.1393908399106
 31
0.0
  0
LINE
  5
F7
330
1F
100
AcDbEntity
  8
VISIBLE
100
AcDbLine
 10
227.3903931831888
 20
381.8866226213933
 30
0.0
 11
227.3903931831888
 21
414.6866226213933
 31
0.0
  0
LINE
  5
F8
330
1F
100
AcDbEntity
  8
VISIBLE
100
AcDbLine
 10
250.7237265165221
 20
417.6866226213933
 30
0.0
 11
250.7237265165221
 21
414.6866226213933
 31
0.0
  0
LINE
  5
F9
330
1F
100
AcDbEntity
  8
VISIBLE
100
AcDbLine
 10
262.3903931831888
 20
250.6866226213932
 30
0.0
 11
262.3903931831888
 21
283.4866226213933
 31
0.0
  0
LINE
  5
FA
330
1F
100
AcDbEntity
  8
VISIBLE
100
AcDbLine
 10
250.7237265165221
 20
247.6866226213932
 30
0.0
 11
250.7237265165221
 21
250.6866226213932
 31
0.0
  0
LINE
  5
FB
330
1F
100
AcDbEntity
  8
VISIBLE
100
AcDbLine
 10
239.0570598498554
 20
250.6866226213932
 30
0.0
 11
227.3903931831888
 21
250.6866226213932
 31
0.0
  0
LINE
  5
FC
330
1F
100
AcDbEntity
  8
VISIBLE
100
AcDbLine
 10
227.3903931831888
 20
316.2866226213932
 30
0.0
 11
227.3903931831888
 21
349.0866226213933
 31
0.0
  0
LINE
  5
FD
330
1F
100
AcDbEntity
  8
VISIBLE
100
AcDbLine
 10
239.0570598498554
 20
417.6866226213933
 30
0.0
 11
239.0570598498554
 21
414.6866226213933
 31
0.0
  0
LINE
  5
FE
330
1F
100
AcDbEntity
  8
VISIBLE
100
AcDbLine
 10
262.3903931831888
 20
250.6866226213932
 30
0.0
 11
250.7237265165221
 21
250.6866226213932
 31
0.0
  0
LINE
  5
FF
330
1F
100
AcDbEntity
  8
VISIBLE
100
AcDbLine
 10
227.3903931831888
 20
414.6866226213933
 30
0.0
 11
239.0570598498554
 21
414.6866226213933
 31
0.0
  0
LINE
  5
100
330
1F
100
AcDbEntity
  8
VISIBLE
100
AcDbLine
 10
239.0570598498554
 20
247.6866226213932
 30
0.0
 11
239.0570598498554
 21
250.6866226213932
 31
0.0
  0
LINE
  5
101
330
1F
100
AcDbEntity
  8
VISIBLE
100
AcDbLine
 10
250.7237265165221
 20
414.6866226213933
 30
0.0
 11
262.3903931831888
 21
414.6866226213933
 31
0.0
  0
LINE
  5
102
330
1F
100
AcDbEntity
  8
VISIBLE
100
AcDbLine
 10
239.0570598498554
 20
247.6866226213932
 30
0.0
 11
250.7237265165221
 21
247.6866226213932
 31
0.0
  0
LINE
  5
103
330
1F
100
AcDbEntity
  8
VISIBLE
100
AcDbLine
 10
227.3903931831888
 20
250.6866226213932
 30
0.0
 11
227.3903931831888
 21
283.4866226213933
 31
0.0
  0
LINE
  5
104
330
1F
100
AcDbEntity
  8
VISIBLE
100
AcDbLine
 10
262.3903931831888
 20
381.8866226213933
 30
0.0
 11
262.3903931831888
 21
414.6866226213933
 31
0.0
  0
LINE
  5
105
330
1F
100
AcDbEntity
  8
VISIBLE
100
AcDbLine
 10
239.0570598498554
 20
417.6866226213933
 30
0.0
 11
250.7237265165221
 21
417.6866226213933
 31
0.0
  0
LINE
  5
106
330
1F
100
AcDbEntity
  8
VISIBLE
100
AcDbLine
 10
262.3903931831888
 20
316.2866226213932
 30
0.0
 11
262.3903931831888
 21
349.0866226213933
 31
0.0
  0
LINE
  5
107
330
1F
100
AcDbEntity
  8
VISIBLE
100
AcDbLine
 10
230.3903931831888
 20
349.0866226213933
 30
0.0
 11
230.3903931831888
 21
381.8866226213933
 31
0.0
  0
LINE
  5
108
330
1F
100
AcDbEntity
  8
VISIBLE
100
AcDbLine
 10
227.3903931831888
 20
381.8866226213933
 30
0.0
 11
230.3903931831888
 21
381.8866226213933
 31
0.0
  0
LINE
  5
109
330
1F
100
AcDbEntity
  8
VISIBLE
100
AcDbLine
 10
227.3903931831888
 20
349.0866226213933
 30
0.0
 11
230.3903931831888
 21
349.0866226213933
 31
0.0
  0
LINE
  5
10A
330
1F
100
AcDbEntity
  8
VISIBLE
100
AcDbLine
 10
230.3903931831888
 20
283.4866226213933
 30
0.0
 11
230.3903931831888
 21
316.2866226213932
 31
0.0
  0
LINE
  5
10B
330
1F
100
AcDbEntity
  8
VISIBLE
100
AcDbLine
 10
227.3903931831888
 20
316.2866226213932
 30
0.0
 11
230.3903931831888
 21
316.2866226213932
 31
0.0
  0
LINE
  5
10C
330
1F
100
AcDbEntity
  8
VISIBLE
100
AcDbLine
 10
227.3903931831888
 20
283.4866226213933
 30
0.0
 11
230.3903931831888
 21
283.4866226213933
 31
0.0
  0
LINE
  5
10D
330
1F
100
AcDbEntity
  8
VISIBLE
100
AcDbLine
 10
259.3903931831888
 20
316.2866226213932
 30
0.0
 11
259.3903931831888
 21
283.4866226213933
 31
0.0
  0
LINE
  5
10E
330
1F
100
AcDbEntity
  8
VISIBLE
100
AcDbLine
 10
262.3903931831888
 20
283.4866226213933
 30
0.0
 11
259.3903931831888
 21
283.4866226213933
 31
0.0
  0
LINE
  5
10F
330
1F
100
AcDbEntity
  8
VISIBLE
100
AcDbLine
 10
262.3903931831888
 20
316.2866226213932
 30
0.0
 11
259.3903931831888
 21
316.2866226213932
 31
0.0
  0
LINE
  5
110
330
1F
100
AcDbEntity
  8
VISIBLE
100
AcDbLine
 10
259.3903931831888
 20
381.8866226213933
 30
0.0
 11
259.3903931831888
 21
349.0866226213933
 31
0.0
  0
LINE
  5
111
330
1F
100
AcDbEntity
  8
VISIBLE
100
AcDbLine
 10
262.3903931831888
 20
349.0866226213933
 30
0.0
 11
259.3903931831888
 21
349.0866226213933
 31
0.0
  0
LINE
  5
112
330
1F
100
AcDbEntity
  8
VISIBLE
100
AcDbLine
 10
262.3903931831888
 20
381.8866226213933
 30
0.0
 11
259.3903931831888
 21
381.8866226213933
 31
0.0
  0
LINE
  5
113
330
1F
100
AcDbEntity
  8
VISIBLE
100
AcDbLine
 10
316.5682922458223
 20
416.5702050941946
 30
0.0
 11
316.5682922458223
 21
383.7702050941945
 31
0.0
  0
LINE
  5
114
330
1F
100
AcDbEntity
  8
VISIBLE
100
AcDbLine
 10
328.234958912489
 20
419.5702050941946
 30
0.0
 11
328.234958912489
 21
416.5702050941946
 31
0.0
  0
LINE
  5
115
330
1F
100
AcDbEntity
  8
VISIBLE
100
AcDbLine
 10
328.234958912489
 20
419.5702050941946
 30
0.0
 11
339.9016255791556
 21
419.5702050941946
 31
0.0
  0
LINE
  5
116
330
1F
100
AcDbEntity
  8
VISIBLE
100
AcDbLine
 10
339.9016255791556
 20
416.5702050941946
 30
0.0
 11
351.5682922458223
 21
416.5702050941946
 31
0.0
  0
LINE
  5
117
330
1F
100
AcDbEntity
  8
VISIBLE
100
AcDbLine
 10
351.5682922458223
 20
383.7702050941945
 30
0.0
 11
348.5682922458223
 21
383.7702050941945
 31
0.0
  0
LINE
  5
118
330
1F
100
AcDbEntity
  8
VISIBLE
100
AcDbLine
 10
348.5682922458223
 20
383.7702050941945
 30
0.0
 11
348.5682922458223
 21
350.9702050941946
 31
0.0
  0
LINE
  5
119
330
1F
100
AcDbEntity
  8
VISIBLE
100
AcDbLine
 10
351.5682922458223
 20
350.9702050941946
 30
0.0
 11
348.5682922458223
 21
350.9702050941946
 31
0.0
  0
LINE
  5
11A
330
1F
100
AcDbEntity
  8
VISIBLE
100
AcDbLine
 10
351.5682922458223
 20
350.9702050941946
 30
0.0
 11
351.5682922458223
 21
318.1702050941946
 31
0.0
  0
LINE
  5
11B
330
1F
100
AcDbEntity
  8
VISIBLE
100
AcDbLine
 10
351.5682922458223
 20
318.1702050941946
 30
0.0
 11
348.5682922458223
 21
318.1702050941946
 31
0.0
  0
LINE
  5
11C
330
1F
100
AcDbEntity
  8
VISIBLE
100
AcDbLine
 10
351.5682922458223
 20
285.3702050941945
 30
0.0
 11
351.5682922458223
 21
252.5702050941945
 31
0.0
  0
LINE
  5
11D
330
1F
100
AcDbEntity
  8
VISIBLE
100
AcDbLine
 10
339.9016255791556
 20
249.5702050941945
 30
0.0
 11
339.9016255791556
 21
252.5702050941945
 31
0.0
  0
LINE
  5
11E
330
1F
100
AcDbEntity
  8
VISIBLE
100
AcDbLine
 10
328.234958912489
 20
249.5702050941945
 30
0.0
 11
339.9016255791556
 21
249.5702050941945
 31
0.0
  0
LINE
  5
11F
330
1F
100
AcDbEntity
  8
VISIBLE
100
AcDbLine
 10
328.234958912489
 20
252.5702050941945
 30
0.0
 11
316.5682922458223
 21
252.5702050941945
 31
0.0
  0
LINE
  5
120
330
1F
100
AcDbEntity
  8
VISIBLE
100
AcDbLine
 10
316.5682922458223
 20
285.3702050941946
 30
0.0
 11
316.5682922458223
 21
252.5702050941945
 31
0.0
  0
CIRCLE
  5
121
330
1F
100
AcDbEntity
  8
VISIBLE
100
AcDbCircle
 10
334.0682922458223
 20
354.5702050941945
 30
0.0
 40
5.000000000000001
  0
CIRCLE
  5
122
330
1F
100
AcDbEntity
  8
VISIBLE
100
AcDbCircle
 10
334.0682922458223
 20
274.5702050941945
 30
0.0
 40
5.000000000000001
  0
LINE
  5
123
330
1F
100
AcDbEntity
  8
VISIBLE
100
AcDbLine
 10
339.9016255791556
 20
419.5702050941946
 30
0.0
 11
339.9016255791556
 21
416.5702050941946
 31
0.0
  0
LINE
  5
124
330
1F
100
AcDbEntity
  8
VISIBLE
100
AcDbLine
 10
316.5682922458223
 20
350.9702050941946
 30
0.0
 11
316.5682922458223
 21
318.1702050941946
 31
0.0
  0
LINE
  5
125
330
1F
100
AcDbEntity
  8
VISIBLE
100
AcDbLine
 10
316.5682922458223
 20
416.5702050941946
 30
0.0
 11
328.234958912489
 21
416.5702050941946
 31
0.0
  0
LINE
  5
126
330
1F
100
AcDbEntity
  8
VISIBLE
100
AcDbLine
 10
351.5682922458223
 20
285.3702050941945
 30
0.0
 11
348.5682922458223
 21
285.3702050941945
 31
0.0
  0
LINE
  5
127
330
1F
100
AcDbEntity
  8
VISIBLE
100
AcDbLine
 10
316.5682922458223
 20
383.7702050941945
 30
0.0
 11
319.5682922458223
 21
383.7702050941945
 31
0.0
  0
LINE
  5
128
330
1F
100
AcDbEntity
  8
VISIBLE
100
AcDbLine
 10
316.5682922458223
 20
350.9702050941946
 30
0.0
 11
319.5682922458223
 21
350.9702050941946
 31
0.0
  0
LINE
  5
129
330
1F
100
AcDbEntity
  8
VISIBLE
100
AcDbLine
 10
351.5682922458223
 20
416.5702050941946
 30
0.0
 11
351.5682922458223
 21
383.7702050941945
 31
0.0
  0
LINE
  5
12A
330
1F
100
AcDbEntity
  8
VISIBLE
100
AcDbLine
 10
316.5682922458223
 20
318.1702050941946
 30
0.0
 11
319.5682922458223
 21
318.1702050941946
 31
0.0
  0
LINE
  5
12B
330
1F
100
AcDbEntity
  8
VISIBLE
100
AcDbLine
 10
316.5682922458223
 20
285.3702050941946
 30
0.0
 11
319.5682922458223
 21
285.3702050941946
 31
0.0
  0
LINE
  5
12C
330
1F
100
AcDbEntity
  8
VISIBLE
100
AcDbLine
 10
319.5682922458223
 20
350.9702050941946
 30
0.0
 11
319.5682922458223
 21
383.7702050941945
 31
0.0
  0
LINE
  5
12D
330
1F
100
AcDbEntity
  8
VISIBLE
100
AcDbLine
 10
328.234958912489
 20
249.5702050941945
 30
0.0
 11
328.234958912489
 21
252.5702050941945
 31
0.0
  0
LINE
  5
12E
330
1F
100
AcDbEntity
  8
VISIBLE
100
AcDbLine
 10
319.5682922458223
 20
285.3702050941946
 30
0.0
 11
319.5682922458223
 21
318.1702050941946
 31
0.0
  0
LINE
  5
12F
330
1F
100
AcDbEntity
  8
VISIBLE
100
AcDbLine
 10
348.5682922458223
 20
318.1702050941946
 30
0.0
 11
348.5682922458223
 21
285.3702050941945
 31
0.0
  0
LINE
  5
130
330
1F
100
AcDbEntity
  8
VISIBLE
100
AcDbLine
 10
351.5682922458223
 20
252.5702050941945
 30
0.0
 11
339.9016255791556
 21
252.5702050941945
 31
0.0
  0
LINE
  5
131
330
1F
100
AcDbEntity
  8
BORDER_FRAME
100
AcDbLine
 10
21.0
 20
20.0
 30
0.0
 11
21.0
 21
574.0
 31
0.0
  0
LINE
  5
134
330
1F
100
AcDbEntity
  8
BORDER_FRAME
100
AcDbLine
 10
21.0
 20
574.0
 30
0.0
 11
822.0
 21
574.0
 31
0.0
  0
LINE
  5
135
330
1F
100
AcDbEntity
  8
BORDER_FRAME
100
AcDbLine
 10
822.0
 20
574.0
 30
0.0
 11
822.0
 21
20.0
 31
0.0
  0
LINE
  5
136
330
1F
100
AcDbEntity
  8
BORDER_FRAME
100
AcDbLine
 10
822.0
 20
20.0
 30
0.0
 11
21.0
 21
20.0
 31
0.0
  0
LINE
  5
137
330
1F
100
AcDbEntity
  8
BORDER_ZONES
100
AcDbLine
 10
71.5
 20
20.0
 30
0.0
 11
71.5
 21
1.0
 31
0.0
  0
LINE
  5
139
330
1F
100
AcDbEntity
  8
BORDER_ZONES
100
AcDbLine
 10
71.5
 20
574.0
 30
0.0
 11
71.5
 21
593.0
 31
0.0
  0
MTEXT
  5
13A
330
1F
100
AcDbEntity
  8
BORDER_ZONES
100
AcDbMText
 10
36.5
 20
10.0
 30
0.0
 40
6.0
 41
0.0
 71
     5
 72
     1
  1
12
  7
ONSHAPE-STANDARD
  0
MTEXT
  5
13C
330
1F
100
AcDbEntity
  8
BORDER_ZONES
100
AcDbMText
 10
36.5
 20
584.0
 30
0.0
 40
6.0
 41
0.0
 71
     5
 72
     1
  1
12
  7
ONSHAPE-STANDARD
  0
MTEXT
  5
13D
330
1F
100
AcDbEntity
  8
BORDER_ZONES
100
AcDbMText
 10
106.5
 20
10.0
 30
0.0
 40
6.0
 41
0.0
 71
     5
 72
     1
  1
11
  7
ONSHAPE-STANDARD
  0
MTEXT
  5
13E
330
1F
100
AcDbEntity
  8
BORDER_ZONES
100
AcDbMText
 10
106.5
 20
584.0
 30
0.0
 40
6.0
 41
0.0
 71
     5
 72
     1
  1
11
  7
ONSHAPE-STANDARD
  0
LINE
  5
13F
330
1F
100
AcDbEntity
  8
BORDER_ZONES
100
AcDbLine
 10
141.5
 20
20.0
 30
0.0
 11
141.5
 21
1.0
 31
0.0
  0
LINE
  5
140
330
1F
100
AcDbEntity
  8
BORDER_ZONES
100
AcDbLine
 10
141.5
 20
574.0
 30
0.0
 11
141.5
 21
593.0
 31
0.0
  0
MTEXT
  5
141
330
1F
100
AcDbEntity
  8
BORDER_ZONES
100
AcDbMText
 10
176.5
 20
10.0
 30
0.0
 40
6.0
 41
0.0
 71
     5
 72
     1
  1
10
  7
ONSHAPE-STANDARD
  0
MTEXT
  5
142
330
1F
100
AcDbEntity
  8
BORDER_ZONES
100
AcDbMText
 10
176.5
 20
584.0
 30
0.0
 40
6.0
 41
0.0
 71
     5
 72
     1
  1
10
  7
ONSHAPE-STANDARD
  0
LINE
  5
143
330
1F
100
AcDbEntity
  8
BORDER_ZONES
100
AcDbLine
 10
211.5
 20
20.0
 30
0.0
 11
211.5
 21
1.0
 31
0.0
  0
LINE
  5
144
330
1F
100
AcDbEntity
  8
BORDER_ZONES
100
AcDbLine
 10
211.5
 20
574.0
 30
0.0
 11
211.5
 21
593.0
 31
0.0
  0
MTEXT
  5
145
330
1F
100
AcDbEntity
  8
BORDER_ZONES
100
AcDbMText
 10
246.5
 20
10.0
 30
0.0
 40
6.0
 41
0.0
 71
     5
 72
     1
  1
9
  7
ONSHAPE-STANDARD
  0
MTEXT
  5
146
330
1F
100
AcDbEntity
  8
BORDER_ZONES
100
AcDbMText
 10
246.5
 20
584.0
 30
0.0
 40
6.0
 41
0.0
 71
     5
 72
     1
  1
9
  7
ONSHAPE-STANDARD
  0
LINE
  5
147
330
1F
100
AcDbEntity
  8
BORDER_ZONES
100
AcDbLine
 10
281.5
 20
20.0
 30
0.0
 11
281.5
 21
1.0
 31
0.0
  0
LINE
  5
148
330
1F
100
AcDbEntity
  8
BORDER_ZONES
100
AcDbLine
 10
281.5
 20
574.0
 30
0.0
 11
281.5
 21
593.0
 31
0.0
  0
MTEXT
  5
149
330
1F
100
AcDbEntity
  8
BORDER_ZONES
100
AcDbMText
 10
316.5
 20
10.0
 30
0.0
 40
6.0
 41
0.0
 71
     5
 72
     1
  1
8
  7
ONSHAPE-STANDARD
  0
MTEXT
  5
14A
330
1F
100
AcDbEntity
  8
BORDER_ZONES
100
AcDbMText
 10
316.5
 20
584.0
 30
0.0
 40
6.0
 41
0.0
 71
     5
 72
     1
  1
8
  7
ONSHAPE-STANDARD
  0
LINE
  5
14B
330
1F
100
AcDbEntity
  8
BORDER_ZONES
100
AcDbLine
 10
351.5
 20
20.0
 30
0.0
 11
351.5
 21
1.0
 31
0.0
  0
LINE
  5
14C
330
1F
100
AcDbEntity
  8
BORDER_ZONES
100
AcDbLine
 10
351.5
 20
574.0
 30
0.0
 11
351.5
 21
593.0
 31
0.0
  0
MTEXT
  5
14D
330
1F
100
AcDbEntity
  8
BORDER_ZONES
100
AcDbMText
 10
386.5
 20
10.0
 30
0.0
 40
6.0
 41
0.0
 71
     5
 72
     1
  1
7
  7
ONSHAPE-STANDARD
  0
MTEXT
  5
14E
330
1F
100
AcDbEntity
  8
BORDER_ZONES
100
AcDbMText
 10
386.5
 20
584.0
 30
0.0
 40
6.0
 41
0.0
 71
     5
 72
     1
  1
7
  7
ONSHAPE-STANDARD
  0
LINE
  5
14F
330
1F
100
AcDbEntity
  8
BORDER_ZONES
100
AcDbLine
 10
421.5
 20
20.0
 30
0.0
 11
421.5
 21
1.0
 31
0.0
  0
LINE
  5
150
330
1F
100
AcDbEntity
  8
BORDER_ZONES
100
AcDbLine
 10
421.5
 20
574.0
 30
0.0
 11
421.5
 21
593.0
 31
0.0
  0
MTEXT
  5
151
330
1F
100
AcDbEntity
  8
BORDER_ZONES
100
AcDbMText
 10
456.5
 20
10.0
 30
0.0
 40
6.0
 41
0.0
 71
     5
 72
     1
  1
6
  7
ONSHAPE-STANDARD
  0
MTEXT
  5
152
330
1F
100
AcDbEntity
  8
BORDER_ZONES
100
AcDbMText
 10
456.5
 20
584.0
 30
0.0
 40
6.0
 41
0.0
 71
     5
 72
     1
  1
6
  7
ONSHAPE-STANDARD
  0
LINE
  5
153
330
1F
100
AcDbEntity
  8
BORDER_ZONES
100
AcDbLine
 10
491.5
 20
20.0
 30
0.0
 11
491.5
 21
1.0
 31
0.0
  0
LINE
  5
154
330
1F
100
AcDbEntity
  8
BORDER_ZONES
100
AcDbLine
 10
491.5
 20
574.0
 30
0.0
 11
491.5
 21
593.0
 31
0.0
  0
MTEXT
  5
155
330
1F
100
AcDbEntity
  8
BORDER_ZONES
100
AcDbMText
 10
526.5
 20
10.0
 30
0.0
 40
6.0
 41
0.0
 71
     5
 72
     1
  1
5
  7
ONSHAPE-STANDARD
  0
MTEXT
  5
156
330
1F
100
AcDbEntity
  8
BORDER_ZONES
100
AcDbMText
 10
526.5
 20
584.0
 30
0.0
 40
6.0
 41
0.0
 71
     5
 72
     1
  1
5
  7
ONSHAPE-STANDARD
  0
LINE
  5
157
330
1F
100
AcDbEntity
  8
BORDER_ZONES
100
AcDbLine
 10
561.5
 20
20.0
 30
0.0
 11
561.5
 21
1.0
 31
0.0
  0
LINE
  5
158
330
1F
100
AcDbEntity
  8
BORDER_ZONES
100
AcDbLine
 10
561.5
 20
574.0
 30
0.0
 11
561.5
 21
593.0
 31
0.0
  0
MTEXT
  5
159
330
1F
100
AcDbEntity
  8
BORDER_ZONES
100
AcDbMText
 10
596.5
 20
10.0
 30
0.0
 40
6.0
 41
0.0
 71
     5
 72
     1
  1
4
  7
ONSHAPE-STANDARD
  0
MTEXT
  5
15A
330
1F
100
AcDbEntity
  8
BORDER_ZONES
100
AcDbMText
 10
596.5
 20
584.0
 30
0.0
 40
6.0
 41
0.0
 71
     5
 72
     1
  1
4
  7
ONSHAPE-STANDARD
  0
LINE
  5
15B
330
1F
100
AcDbEntity
  8
BORDER_ZONES
100
AcDbLine
 10
631.5
 20
20.0
 30
0.0
 11
631.5
 21
1.0
 31
0.0
  0
LINE
  5
15C
330
1F
100
AcDbEntity
  8
BORDER_ZONES
100
AcDbLine
 10
631.5
 20
574.0
 30
0.0
 11
631.5
 21
593.0
 31
0.0
  0
MTEXT
  5
15D
330
1F
100
AcDbEntity
  8
BORDER_ZONES
100
AcDbMText
 10
666.5
 20
10.0
 30
0.0
 40
6.0
 41
0.0
 71
     5
 72
     1
  1
3
  7
ONSHAPE-STANDARD
  0
MTEXT
  5
15E
330
1F
100
AcDbEntity
  8
BORDER_ZONES
100
AcDbMText
 10
666.5
 20
584.0
 30
0.0
 40
6.0
 41
0.0
 71
     5
 72
     1
  1
3
  7
ONSHAPE-STANDARD
  0
LINE
  5
15F
330
1F
100
AcDbEntity
  8
BORDER_ZONES
100
AcDbLine
 10
701.5
 20
20.0
 30
0.0
 11
701.5
 21
1.0
 31
0.0
  0
LINE
  5
160
330
1F
100
AcDbEntity
  8
BORDER_ZONES
100
AcDbLine
 10
701.5
 20
574.0
 30
0.0
 11
701.5
 21
593.0
 31
0.0
  0
MTEXT
  5
161
330
1F
100
AcDbEntity
  8
BORDER_ZONES
100
AcDbMText
 10
736.5
 20
10.0
 30
0.0
 40
6.0
 41
0.0
 71
     5
 72
     1
  1
2
  7
ONSHAPE-STANDARD
  0
MTEXT
  5
162
330
1F
100
AcDbEntity
  8
BORDER_ZONES
100
AcDbMText
 10
736.5
 20
584.0
 30
0.0
 40
6.0
 41
0.0
 71
     5
 72
     1
  1
2
  7
ONSHAPE-STANDARD
  0
LINE
  5
163
330
1F
100
AcDbEntity
  8
BORDER_ZONES
100
AcDbLine
 10
771.5
 20
20.0
 30
0.0
 11
771.5
 21
1.0
 31
0.0
  0
LINE
  5
164
330
1F
100
AcDbEntity
  8
BORDER_ZONES
100
AcDbLine
 10
771.5
 20
574.0
 30
0.0
 11
771.5
 21
593.0
 31
0.0
  0
MTEXT
  5
165
330
1F
100
AcDbEntity
  8
BORDER_ZONES
100
AcDbMText
 10
806.5
 20
10.0
 30
0.0
 40
6.0
 41
0.0
 71
     5
 72
     1
  1
1
  7
ONSHAPE-STANDARD
  0
MTEXT
  5
166
330
1F
100
AcDbEntity
  8
BORDER_ZONES
100
AcDbMText
 10
806.5
 20
584.0
 30
0.0
 40
6.0
 41
0.0
 71
     5
 72
     1
  1
1
  7
ONSHAPE-STANDARD
  0
LINE
  5
167
330
1F
100
AcDbEntity
  8
BORDER_ZONES
100
AcDbLine
 10
21.0
 20
75.0
 30
0.0
 11
2.0
 21
75.0
 31
0.0
  0
LINE
  5
168
330
1F
100
AcDbEntity
  8
BORDER_ZONES
100
AcDbLine
 10
822.0
 20
75.0
 30
0.0
 11
841.0
 21
75.0
 31
0.0
  0
MTEXT
  5
169
330
1F
100
AcDbEntity
  8
BORDER_ZONES
100
AcDbMText
 10
11.0
 20
38.0
 30
0.0
 40
6.0
 41
0.0
 71
     5
 72
     1
  1
A
  7
ONSHAPE-STANDARD
  0
MTEXT
  5
16A
330
1F
100
AcDbEntity
  8
BORDER_ZONES
100
AcDbMText
 10
832.0
 20
38.0
 30
0.0
 40
6.0
 41
0.0
 71
     5
 72
     1
  1
A
  7
ONSHAPE-STANDARD
  0
MTEXT
  5
16B
330
1F
100
AcDbEntity
  8
BORDER_ZONES
100
AcDbMText
 10
11.0
 20
112.0
 30
0.0
 40
6.0
 41
0.0
 71
     5
 72
     1
  1
B
  7
ONSHAPE-STANDARD
  0
MTEXT
  5
16C
330
1F
100
AcDbEntity
  8
BORDER_ZONES
100
AcDbMText
 10
832.0
 20
112.0
 30
0.0
 40
6.0
 41
0.0
 71
     5
 72
     1
  1
B
  7
ONSHAPE-STANDARD
  0
LINE
  5
16D
330
1F
100
AcDbEntity
  8
BORDER_ZONES
100
AcDbLine
 10
21.0
 20
149.0
 30
0.0
 11
2.0
 21
149.0
 31
0.0
  0
LINE
  5
16E
330
1F
100
AcDbEntity
  8
BORDER_ZONES
100
AcDbLine
 10
822.0
 20
149.0
 30
0.0
 11
841.0
 21
149.0
 31
0.0
  0
MTEXT
  5
16F
330
1F
100
AcDbEntity
  8
BORDER_ZONES
100
AcDbMText
 10
11.0
 20
186.0
 30
0.0
 40
6.0
 41
0.0
 71
     5
 72
     1
  1
C
  7
ONSHAPE-STANDARD
  0
MTEXT
  5
170
330
1F
100
AcDbEntity
  8
BORDER_ZONES
100
AcDbMText
 10
832.0
 20
186.0
 30
0.0
 40
6.0
 41
0.0
 71
     5
 72
     1
  1
C
  7
ONSHAPE-STANDARD
  0
LINE
  5
171
330
1F
100
AcDbEntity
  8
BORDER_ZONES
100
AcDbLine
 10
21.0
 20
223.0
 30
0.0
 11
2.0
 21
223.0
 31
0.0
  0
LINE
  5
172
330
1F
100
AcDbEntity
  8
BORDER_ZONES
100
AcDbLine
 10
822.0
 20
223.0
 30
0.0
 11
841.0
 21
223.0
 31
0.0
  0
MTEXT
  5
173
330
1F
100
AcDbEntity
  8
BORDER_ZONES
100
AcDbMText
 10
11.0
 20
260.0
 30
0.0
 40
6.0
 41
0.0
 71
     5
 72
     1
  1
D
  7
ONSHAPE-STANDARD
  0
MTEXT
  5
174
330
1F
100
AcDbEntity
  8
BORDER_ZONES
100
AcDbMText
 10
832.0
 20
260.0
 30
0.0
 40
6.0
 41
0.0
 71
     5
 72
     1
  1
D
  7
ONSHAPE-STANDARD
  0
LINE
  5
175
330
1F
100
AcDbEntity
  8
BORDER_ZONES
100
AcDbLine
 10
21.0
 20
297.0
 30
0.0
 11
2.0
 21
297.0
 31
0.0
  0
LINE
  5
176
330
1F
100
AcDbEntity
  8
BORDER_ZONES
100
AcDbLine
 10
822.0
 20
297.0
 30
0.0
 11
841.0
 21
297.0
 31
0.0
  0
MTEXT
  5
177
330
1F
100
AcDbEntity
  8
BORDER_ZONES
100
AcDbMText
 10
11.0
 20
334.0
 30
0.0
 40
6.0
 41
0.0
 71
     5
 72
     1
  1
E
  7
ONSHAPE-STANDARD
  0
MTEXT
  5
178
330
1F
100
AcDbEntity
  8
BORDER_ZONES
100
AcDbMText
 10
832.0
 20
334.0
 30
0.0
 40
6.0
 41
0.0
 71
     5
 72
     1
  1
E
  7
ONSHAPE-STANDARD
  0
LINE
  5
179
330
1F
100
AcDbEntity
  8
BORDER_ZONES
100
AcDbLine
 10
21.0
 20
371.0
 30
0.0
 11
2.0
 21
371.0
 31
0.0
  0
LINE
  5
17A
330
1F
100
AcDbEntity
  8
BORDER_ZONES
100
AcDbLine
 10
822.0
 20
371.0
 30
0.0
 11
841.0
 21
371.0
 31
0.0
  0
MTEXT
  5
17B
330
1F
100
AcDbEntity
  8
BORDER_ZONES
100
AcDbMText
 10
11.0
 20
408.0
 30
0.0
 40
6.0
 41
0.0
 71
     5
 72
     1
  1
F
  7
ONSHAPE-STANDARD
  0
MTEXT
  5
17C
330
1F
100
AcDbEntity
  8
BORDER_ZONES
100
AcDbMText
 10
832.0
 20
408.0
 30
0.0
 40
6.0
 41
0.0
 71
     5
 72
     1
  1
F
  7
ONSHAPE-STANDARD
  0
LINE
  5
17D
330
1F
100
AcDbEntity
  8
BORDER_ZONES
100
AcDbLine
 10
21.0
 20
445.0
 30
0.0
 11
2.0
 21
445.0
 31
0.0
  0
LINE
  5
17E
330
1F
100
AcDbEntity
  8
BORDER_ZONES
100
AcDbLine
 10
822.0
 20
445.0
 30
0.0
 11
841.0
 21
445.0
 31
0.0
  0
MTEXT
  5
17F
330
1F
100
AcDbEntity
  8
BORDER_ZONES
100
AcDbMText
 10
11.0
 20
482.0
 30
0.0
 40
6.0
 41
0.0
 71
     5
 72
     1
  1
G
  7
ONSHAPE-STANDARD
  0
MTEXT
  5
180
330
1F
100
AcDbEntity
  8
BORDER_ZONES
100
AcDbMText
 10
832.0
 20
482.0
 30
0.0
 40
6.0
 41
0.0
 71
     5
 72
     1
  1
G
  7
ONSHAPE-STANDARD
  0
LINE
  5
181
330
1F
100
AcDbEntity
  8
BORDER_ZONES
100
AcDbLine
 10
21.0
 20
519.0
 30
0.0
 11
2.0
 21
519.0
 31
0.0
  0
LINE
  5
182
330
1F
100
AcDbEntity
  8
BORDER_ZONES
100
AcDbLine
 10
822.0
 20
519.0
 30
0.0
 11
841.0
 21
519.0
 31
0.0
  0
MTEXT
  5
183
330
1F
100
AcDbEntity
  8
BORDER_ZONES
100
AcDbMText
 10
11.0
 20
556.0
 30
0.0
 40
6.0
 41
0.0
 71
     5
 72
     1
  1
H
  7
ONSHAPE-STANDARD
  0
MTEXT
  5
184
330
1F
100
AcDbEntity
  8
BORDER_ZONES
100
AcDbMText
 10
832.0
 20
556.0
 30
0.0
 40
6.0
 41
0.0
 71
     5
 72
     1
  1
H
  7
ONSHAPE-STANDARD
  0
LINE
  5
185
330
1F
100
AcDbEntity
  8
TITLE_BLOCK
100
AcDbLine
 10
552.125
 20
20.0
 30
0.0
 11
552.125
 21
83.5
 31
0.0
  0
LINE
  5
187
330
1F
100
AcDbEntity
  8
TITLE_BLOCK
100
AcDbLine
 10
552.125
 20
20.0
 30
0.0
 11
602.925
 21
20.0
 31
0.0
  0
LINE
  5
188
330
1F
100
AcDbEntity
  8
TITLE_BLOCK
100
AcDbLine
 10
552.125
 20
32.7
 30
0.0
 11
602.925
 21
32.7
 31
0.0
  0
LINE
  5
189
330
1F
100
AcDbEntity
  8
TITLE_BLOCK
100
AcDbLine
 10
552.125
 20
37.78
 30
0.0
 11
602.925
 21
37.78
 31
0.0
  0
LINE
  5
18A
330
1F
100
AcDbEntity
  8
TITLE_BLOCK
100
AcDbLine
 10
552.125
 20
46.416
 30
0.0
 11
602.925
 21
46.416
 31
0.0
  0
LINE
  5
18B
330
1F
100
AcDbEntity
  8
TITLE_BLOCK
100
AcDbLine
 10
552.125
 20
53.782
 30
0.0
 11
602.925
 21
53.782
 31
0.0
  0
LINE
  5
18C
330
1F
100
AcDbEntity
  8
TITLE_BLOCK
100
AcDbLine
 10
552.125
 20
83.5
 30
0.0
 11
602.925
 21
83.5
 31
0.0
  0
MTEXT
  5
18D
330
1F
100
AcDbEntity
  8
TITLE_BLOCK
100
AcDbMText
 10
553.2426
 20
81.6712
 30
0.0
 40
2.032
 41
49.78399999999996
 71
     1
 72
     1
  1
UNLESS OTHERWISE SPECIFIED, DIMENSIONS ARE IN MILLIMETERS
  7
ONSHAPE-STANDARD
  0
MTEXT
  5
18E
330
1F
100
AcDbEntity
  8
TITLE_BLOCK
100
AcDbMText
 10
578.53084
 20
74.23407999999999
 30
0.0
 40
1.8288
 41
24.89199999999998
 71
     1
 72
     1
  1
^JANGULAR =  ^J
  7
ONSHAPE-STANDARD
  0
MTEXT
  5
18F
330
1F
100
AcDbEntity
  8
TITLE_BLOCK
100
AcDbMText
 10
553.2426
 20
61.85919999999999
 30
0.0
 40
2.032
 41
24.89199999999998
 71
     1
 72
     1
  1
SURFACE FINISH
  7
ONSHAPE-STANDARD
  0
LINE
  5
190
330
1F
100
AcDbEntity
  8
TITLE_BLOCK
100
AcDbLine
 10
574.985
 20
58.86199999999999
 30
0.0
 11
576.255
 21
56.66229547438752
 31
0.0
  0
LINE
  5
191
330
1F
100
AcDbEntity
  8
TITLE_BLOCK
100
AcDbLine
 10
576.255
 20
56.66229547438752
 30
0.0
 11
578.922
 21
61.28167497817371
 31
0.0
  0
LINE
  5
192
330
1F
100
AcDbEntity
  8
TITLE_BLOCK
100
AcDbLine
 10
578.922
 20
61.28167497817371
 30
0.0
 11
581.716
 21
61.28167497817371
 31
0.0
  0
MTEXT
  5
193
330
1F
100
AcDbEntity
  8
TITLE_BLOCK
100
AcDbMText
 10
577.525
 20
51.40456
 30
0.0
 40
2.6416
 41
49.78399999999996
 71
     2
 72
     1
  1
DO NOT SCALE DRAWING
  7
ONSHAPE-STANDARD
  0
MTEXT
  5
194
330
1F
100
AcDbEntity
  8
TITLE_BLOCK
100
AcDbMText
 10
577.525
 20
44.5872
 30
0.0
 40
2.032
 41
49.78399999999996
 71
     2
 72
     1
  1
BREAK ALL SHARP EDGES AND REMOVE BURRS
  7
ONSHAPE-STANDARD
  0
CIRCLE
  5
195
330
1F
100
AcDbEntity
  8
TITLE_BLOCK
100
AcDbCircle
 10
583.24
 20
26.29920000000001
 30
0.0
 40
2.286
  0
CIRCLE
  5
196
330
1F
100
AcDbEntity
  8
TITLE_BLOCK
100
AcDbCircle
 10
583.24
 20
26.29920000000001
 30
0.0
 40
4.571999999999999
  0
LINE
  5
197
330
1F
100
AcDbEntity
  8
TITLE_BLOCK
100
AcDbLine
 10
584.383
 20
26.29920000000001
 30
0.0
 11
582.097
 21
26.29920000000001
 31
0.0
  0
LINE
  5
198
330
1F
100
AcDbEntity
  8
TITLE_BLOCK
100
AcDbLine
 10
583.24
 20
27.44220000000001
 30
0.0
 11
583.24
 21
25.15620000000001
 31
0.0
  0
LINE
  5
199
330
1F
100
AcDbEntity
  8
TITLE_BLOCK
100
AcDbLine
 10
585.526
 20
26.29920000000001
 30
0.0
 11
588.955
 21
26.29920000000001
 31
0.0
  0
LINE
  5
19A
330
1F
100
AcDbEntity
  8
TITLE_BLOCK
100
AcDbLine
 10
583.24
 20
28.58520000000001
 30
0.0
 11
583.24
 21
32.0142
 31
0.0
  0
LINE
  5
19B
330
1F
100
AcDbEntity
  8
TITLE_BLOCK
100
AcDbLine
 10
580.9540000000001
 20
26.29920000000001
 30
0.0
 11
577.525
 21
26.29920000000001
 31
0.0
  0
LINE
  5
19C
330
1F
100
AcDbEntity
  8
TITLE_BLOCK
100
AcDbLine
 10
583.24
 20
24.0132
 30
0.0
 11
583.24
 21
20.58420000000001
 31
0.0
  0
LINE
  5
19D
330
1F
100
AcDbEntity
  8
TITLE_BLOCK
100
AcDbLine
 10
576.382
 20
21.72720000000001
 30
0.0
 11
576.382
 21
30.87120000000001
 31
0.0
  0
LINE
  5
19E
330
1F
100
AcDbEntity
  8
TITLE_BLOCK
100
AcDbLine
 10
576.382
 20
30.87120000000001
 30
0.0
 11
567.2379999999999
 21
28.58520000000001
 31
0.0
  0
LINE
  5
19F
330
1F
100
AcDbEntity
  8
TITLE_BLOCK
100
AcDbLine
 10
567.2379999999999
 20
28.58520000000001
 30
0.0
 11
567.2379999999999
 21
24.0132
 31
0.0
  0
LINE
  5
1A0
330
1F
100
AcDbEntity
  8
TITLE_BLOCK
100
AcDbLine
 10
567.2379999999999
 20
24.0132
 30
0.0
 11
576.382
 21
21.72720000000001
 31
0.0
  0
LINE
  5
1A1
330
1F
100
AcDbEntity
  8
TITLE_BLOCK
100
AcDbLine
 10
572.953
 20
26.29920000000001
 30
0.0
 11
576.9535
 21
26.29920000000001
 31
0.0
  0
LINE
  5
1A2
330
1F
100
AcDbEntity
  8
TITLE_BLOCK
100
AcDbLine
 10
572.2671999999999
 20
26.29920000000001
 30
0.0
 11
571.3528
 21
26.29920000000001
 31
0.0
  0
LINE
  5
1A3
330
1F
100
AcDbEntity
  8
TITLE_BLOCK
100
AcDbLine
 10
570.6669999999999
 20
26.29920000000001
 30
0.0
 11
566.6664999999999
 21
26.29920000000001
 31
0.0
  0
MTEXT
  5
1A4
330
1F
100
AcDbEntity
  8
TITLE_BLOCK
100
AcDbMText
 10
577.525
 20
35.9512
 30
0.0
 40
2.032
 41
49.78399999999996
 71
     2
 72
     1
  1
FIRST ANGLE PROJECTION
  7
ONSHAPE-STANDARD
  0
LINE
  5
1A5
330
1F
100
AcDbEntity
  8
TITLE_BLOCK
100
AcDbLine
 10
602.925
 20
20.0
 30
0.0
 11
602.925
 21
83.5
 31
0.0
  0
LINE
  5
1A6
330
1F
100
AcDbEntity
  8
TITLE_BLOCK
100
AcDbLine
 10
625.15
 20
37.78
 30
0.0
 11
625.15
 21
83.5
 31
0.0
  0
LINE
  5
1A7
330
1F
100
AcDbEntity
  8
TITLE_BLOCK
100
AcDbLine
 10
650.55
 20
37.78
 30
0.0
 11
650.55
 21
83.5
 31
0.0
  0
LINE
  5
1A8
330
1F
100
AcDbEntity
  8
TITLE_BLOCK
100
AcDbLine
 10
647.375
 20
20.0
 30
0.0
 11
647.375
 21
37.78
 31
0.0
  0
MTEXT
  5
1A9
330
1F
100
AcDbEntity
  8
TITLE_BLOCK
100
AcDbMText
 10
663.25
 20
81.6712
 30
0.0
 40
2.032
 41
24.89200000000009
 71
     2
 72
     1
  1
SIGNATURE
  7
ONSHAPE-STANDARD
  0
LINE
  5
1AA
330
1F
100
AcDbEntity
  8
TITLE_BLOCK
100
AcDbLine
 10
675.95
 20
37.78
 30
0.0
 11
675.95
 21
83.5
 31
0.0
  0
LINE
  5
1AB
330
1F
100
AcDbEntity
  8
TITLE_BLOCK
100
AcDbLine
 10
602.925
 20
83.5
 30
0.0
 11
691.825
 21
83.5
 31
0.0
  0
LINE
  5
1AC
330
1F
100
AcDbEntity
  8
TITLE_BLOCK
100
AcDbLine
 10
602.925
 20
75.88
 30
0.0
 11
691.825
 21
75.88
 31
0.0
  0
LINE
  5
1AD
330
1F
100
AcDbEntity
  8
TITLE_BLOCK
100
AcDbLine
 10
602.925
 20
68.25999999999999
 30
0.0
 11
691.825
 21
68.25999999999999
 31
0.0
  0
LINE
  5
1AE
330
1F
100
AcDbEntity
  8
TITLE_BLOCK
100
AcDbLine
 10
602.925
 20
60.64
 30
0.0
 11
691.825
 21
60.64
 31
0.0
  0
LINE
  5
1AF
330
1F
100
AcDbEntity
  8
TITLE_BLOCK
100
AcDbLine
 10
602.925
 20
53.02
 30
0.0
 11
691.825
 21
53.02
 31
0.0
  0
LINE
  5
1B0
330
1F
100
AcDbEntity
  8
TITLE_BLOCK
100
AcDbLine
 10
602.925
 20
45.4
 30
0.0
 11
691.825
 21
45.4
 31
0.0
  0
LINE
  5
1B1
330
1F
100
AcDbEntity
  8
TITLE_BLOCK
100
AcDbLine
 10
602.925
 20
37.78
 30
0.0
 11
691.825
 21
37.78
 31
0.0
  0
MTEXT
  5
1B2
330
1F
100
AcDbEntity
  8
TITLE_BLOCK
100
AcDbMText
 10
626.2676
 20
81.6712
 30
0.0
 40
2.032
 41
24.89199999999998
 71
     1
 72
     1
  1
NAME
  7
ONSHAPE-STANDARD
  0
MTEXT
  5
1B3
330
1F
100
AcDbEntity
  8
TITLE_BLOCK
100
AcDbMText
 10
683.8875
 20
81.6712
 30
0.0
 40
2.032
 41
15.5575
 71
     2
 72
     1
  1
DATE
  7
ONSHAPE-STANDARD
  0
MTEXT
  5
1B4
330
1F
100
AcDbEntity
  8
TITLE_BLOCK
100
AcDbMText
 10
604.0426
 20
74.0512
 30
0.0
 40
2.032
 41
21.78050000000002
 71
     1
 72
     1
  1
DRAWN
  7
ONSHAPE-STANDARD
  0
MTEXT
  5
1B5
102
{ACAD_XDICTIONARY
360
1B6
102
}
330
1F
100
AcDbEntity
  8
TITLE_BLOCK
100
AcDbMText
 10
637.8499999999999
 20
72.07
 30
0.0
 40
1.70688
 41
25.39999999999998
 71
     5
 72
     1
  1
BRAYAMN FERNANDEZ
  7
ONSHAPE-STANDARD-FIELDS
1001
ACAD
1000
ACAD_MTEXT_DEFINED_HEIGHT_BEGIN
1070
    46
1040
7.620000000000005
1000
ACAD_MTEXT_DEFINED_HEIGHT_END
  0
MTEXT
  5
1BC
102
{ACAD_XDICTIONARY
360
1BD
102
}
330
1F
100
AcDbEntity
  8
TITLE_BLOCK
100
AcDbMText
 10
683.8875
 20
72.07
 30
0.0
 40
1.70688
 41
15.875
 71
     5
 72
     1
  1
2023-06-27
  7
ONSHAPE-STANDARD-FIELDS
1001
ACAD
1000
ACAD_MTEXT_DEFINED_HEIGHT_BEGIN
1070
    46
1040
7.620000000000005
1000
ACAD_MTEXT_DEFINED_HEIGHT_END
  0
MTEXT
  5
1C2
330
1F
100
AcDbEntity
  8
TITLE_BLOCK
100
AcDbMText
 10
604.0426
 20
66.43119999999999
 30
0.0
 40
2.032
 41
21.78050000000002
 71
     1
 72
     1
  1
CHECKED
  7
ONSHAPE-STANDARD
  0
MTEXT
  5
1C3
330
1F
100
AcDbEntity
  8
TITLE_BLOCK
100
AcDbMText
 10
637.8499999999999
 20
64.44999999999999
 30
0.0
 40
1.70688
 41
25.39999999999998
 71
     5
 72
     1
  1
 
  7
ONSHAPE-STANDARD-FIELDS
1001
ACAD
1000
ACAD_MTEXT_DEFINED_HEIGHT_BEGIN
1070
    46
1040
7.61999999999999
1000
ACAD_MTEXT_DEFINED_HEIGHT_END
  0
MTEXT
  5
1C4
330
1F
100
AcDbEntity
  8
TITLE_BLOCK
100
AcDbMText
 10
683.8875
 20
64.44999999999999
 30
0.0
 40
1.70688
 41
15.875
 71
     5
 72
     1
  1
 
  7
ONSHAPE-STANDARD-FIELDS
1001
ACAD
1000
ACAD_MTEXT_DEFINED_HEIGHT_BEGIN
1070
    46
1040
7.61999999999999
1000
ACAD_MTEXT_DEFINED_HEIGHT_END
  0
MTEXT
  5
1C5
330
1F
100
AcDbEntity
  8
TITLE_BLOCK
100
AcDbMText
 10
604.0426
 20
58.8112
 30
0.0
 40
2.032
 41
21.78050000000002
 71
     1
 72
     1
  1
APPROVED
  7
ONSHAPE-STANDARD
  0
MTEXT
  5
1C6
102
{ACAD_XDICTIONARY
360
1C7
102
}
330
1F
100
AcDbEntity
  8
TITLE_BLOCK
100
AcDbMText
 10
637.8499999999999
 20
56.83
 30
0.0
 40
1.70688
 41
25.39999999999998
 71
     5
 72
     1
  1
----
  7
ONSHAPE-STANDARD-FIELDS
1001
ACAD
1000
ACAD_MTEXT_DEFINED_HEIGHT_BEGIN
1070
    46
1040
7.620000000000005
1000
ACAD_MTEXT_DEFINED_HEIGHT_END
  0
MTEXT
  5
1CC
102
{ACAD_XDICTIONARY
360
1CD
102
}
330
1F
100
AcDbEntity
  8
TITLE_BLOCK
100
AcDbMText
 10
683.8875
 20
56.83
 30
0.0
 40
1.70688
 41
15.875
 71
     5
 72
     1
  1
----
  7
ONSHAPE-STANDARD-FIELDS
1001
ACAD
1000
ACAD_MTEXT_DEFINED_HEIGHT_BEGIN
1070
    46
1040
7.620000000000005
1000
ACAD_MTEXT_DEFINED_HEIGHT_END
  0
MTEXT
  5
1D2
330
1F
100
AcDbEntity
  8
TITLE_BLOCK
100
AcDbMText
 10
614.0374999999999
 20
49.20999999999999
 30
0.0
 40
3.048
 41
22.22500000000002
 71
     5
 72
     1
  1
 
  7
ONSHAPE-STANDARD-FIELDS
1001
ACAD
1000
ACAD_MTEXT_DEFINED_HEIGHT_BEGIN
1070
    46
1040
7.619999999999997
1000
ACAD_MTEXT_DEFINED_HEIGHT_END
  0
MTEXT
  5
1D3
330
1F
100
AcDbEntity
  8
TITLE_BLOCK
100
AcDbMText
 10
637.8499999999999
 20
49.20999999999999
 30
0.0
 40
1.70688
 41
25.39999999999998
 71
     5
 72
     1
  1
 
  7
ONSHAPE-STANDARD-FIELDS
1001
ACAD
1000
ACAD_MTEXT_DEFINED_HEIGHT_BEGIN
1070
    46
1040
7.619999999999997
1000
ACAD_MTEXT_DEFINED_HEIGHT_END
  0
MTEXT
  5
1D4
330
1F
100
AcDbEntity
  8
TITLE_BLOCK
100
AcDbMText
 10
683.8875
 20
49.20999999999999
 30
0.0
 40
1.70688
 41
15.875
 71
     5
 72
     1
  1
 
  7
ONSHAPE-STANDARD-FIELDS
1001
ACAD
1000
ACAD_MTEXT_DEFINED_HEIGHT_BEGIN
1070
    46
1040
7.619999999999997
1000
ACAD_MTEXT_DEFINED_HEIGHT_END
  0
MTEXT
  5
1D5
330
1F
100
AcDbEntity
  8
TITLE_BLOCK
100
AcDbMText
 10
614.0374999999999
 20
41.59
 30
0.0
 40
3.048
 41
22.22500000000002
 71
     5
 72
     1
  1
 
  7
ONSHAPE-STANDARD-FIELDS
1001
ACAD
1000
ACAD_MTEXT_DEFINED_HEIGHT_BEGIN
1070
    46
1040
7.619999999999997
1000
ACAD_MTEXT_DEFINED_HEIGHT_END
  0
MTEXT
  5
1D6
330
1F
100
AcDbEntity
  8
TITLE_BLOCK
100
AcDbMText
 10
637.8499999999999
 20
41.59
 30
0.0
 40
1.70688
 41
25.39999999999998
 71
     5
 72
     1
  1
 
  7
ONSHAPE-STANDARD-FIELDS
1001
ACAD
1000
ACAD_MTEXT_DEFINED_HEIGHT_BEGIN
1070
    46
1040
7.619999999999997
1000
ACAD_MTEXT_DEFINED_HEIGHT_END
  0
MTEXT
  5
1D7
330
1F
100
AcDbEntity
  8
TITLE_BLOCK
100
AcDbMText
 10
683.8875
 20
41.59
 30
0.0
 40
1.70688
 41
15.875
 71
     5
 72
     1
  1
 
  7
ONSHAPE-STANDARD-FIELDS
1001
ACAD
1000
ACAD_MTEXT_DEFINED_HEIGHT_BEGIN
1070
    46
1040
7.619999999999997
1000
ACAD_MTEXT_DEFINED_HEIGHT_END
  0
MTEXT
  5
1D8
330
1F
100
AcDbEntity
  8
TITLE_BLOCK
100
AcDbMText
 10
604.0426
 20
35.9512
 30
0.0
 40
2.032
 41
43.56100000000004
 71
     1
 72
     1
  1
MATERIAL
  7
ONSHAPE-STANDARD
  0
MTEXT
  5
1D9
330
1F
100
AcDbEntity
  8
TITLE_BLOCK
100
AcDbMText
 10
625.15
 20
28.89
 30
0.0
 40
3.048
 41
44.45000000000005
 71
     5
 72
     1
  1
 
  7
ONSHAPE-STANDARD-FIELDS
1001
ACAD
1000
ACAD_MTEXT_DEFINED_HEIGHT_BEGIN
1070
    46
1040
17.78
1000
ACAD_MTEXT_DEFINED_HEIGHT_END
  0
MTEXT
  5
1DA
330
1F
100
AcDbEntity
  8
TITLE_BLOCK
100
AcDbMText
 10
648.4926
 20
35.9512
 30
0.0
 40
2.032
 41
43.56100000000004
 71
     1
 72
     1
  1
FINISH
  7
ONSHAPE-STANDARD
  0
MTEXT
  5
1DB
330
1F
100
AcDbEntity
  8
TITLE_BLOCK
100
AcDbMText
 10
669.6
 20
28.89
 30
0.0
 40
3.048
 41
44.45000000000005
 71
     5
 72
     1
  1
 
  7
ONSHAPE-STANDARD-FIELDS
1001
ACAD
1000
ACAD_MTEXT_DEFINED_HEIGHT_BEGIN
1070
    46
1040
17.78
1000
ACAD_MTEXT_DEFINED_HEIGHT_END
  0
LINE
  5
1DC
330
1F
100
AcDbEntity
  8
TITLE_BLOCK
100
AcDbLine
 10
691.825
 20
20.0
 30
0.0
 11
691.825
 21
83.5
 31
0.0
  0
LINE
  5
1DD
330
1F
100
AcDbEntity
  8
TITLE_BLOCK
100
AcDbLine
 10
707.7
 20
28.255
 30
0.0
 11
707.7
 21
40.955
 31
0.0
  0
LINE
  5
1DE
330
1F
100
AcDbEntity
  8
TITLE_BLOCK
100
AcDbLine
 10
719.765
 20
20.0
 30
0.0
 11
719.765
 21
28.255
 31
0.0
  0
LINE
  5
1DF
330
1F
100
AcDbEntity
  8
TITLE_BLOCK
100
AcDbLine
 10
777.55
 20
20.0
 30
0.0
 11
777.55
 21
28.255
 31
0.0
  0
LINE
  5
1E0
330
1F
100
AcDbEntity
  8
TITLE_BLOCK
100
AcDbLine
 10
809.3
 20
28.255
 30
0.0
 11
809.3
 21
40.955
 31
0.0
  0
LINE
  5
1E1
330
1F
100
AcDbEntity
  8
TITLE_BLOCK
100
AcDbLine
 10
691.825
 20
28.255
 30
0.0
 11
822.0
 21
28.255
 31
0.0
  0
LINE
  5
1E2
330
1F
100
AcDbEntity
  8
TITLE_BLOCK
100
AcDbLine
 10
691.825
 20
40.955
 30
0.0
 11
822.0
 21
40.955
 31
0.0
  0
LINE
  5
1E3
330
1F
100
AcDbEntity
  8
TITLE_BLOCK
100
AcDbLine
 10
691.825
 20
67.625
 30
0.0
 11
822.0
 21
67.625
 31
0.0
  0
LINE
  5
1E4
330
1F
100
AcDbEntity
  8
TITLE_BLOCK
100
AcDbLine
 10
691.825
 20
83.5
 30
0.0
 11
822.0
 21
83.5
 31
0.0
  0
MTEXT
  5
1E5
330
1F
100
AcDbEntity
  8
TITLE_BLOCK
100
AcDbMText
 10
692.9426000000001
 20
65.7962
 30
0.0
 40
2.032
 41
15.5575
 71
     1
 72
     1
  1
TITLE
  7
ONSHAPE-STANDARD
  0
MTEXT
  5
1E6
102
{ACAD_XDICTIONARY
360
1E7
102
}
330
1F
100
AcDbEntity
  8
TITLE_BLOCK
100
AcDbMText
 10
756.9125
 20
62.54499999999999
 30
0.0
 40
4.876799999999999
 41
117.475
 71
     5
 72
     1
  1
----
  7
ONSHAPE-STANDARD-FIELDS
1001
ACAD
1000
ACAD_MTEXT_DEFINED_HEIGHT_BEGIN
1070
    46
1040
8.001
1000
ACAD_MTEXT_DEFINED_HEIGHT_END
  0
MTEXT
  5
1EC
102
{ACAD_XDICTIONARY
360
1ED
102
}
330
1F
100
AcDbEntity
  8
TITLE_BLOCK
100
AcDbMText
 10
756.9125
 20
54.544
 30
0.0
 40
4.876799999999999
 41
117.475
 71
     5
 72
     1
  1
----
  7
ONSHAPE-STANDARD-FIELDS
1001
ACAD
1000
ACAD_MTEXT_DEFINED_HEIGHT_BEGIN
1070
    46
1040
8.001
1000
ACAD_MTEXT_DEFINED_HEIGHT_END
  0
MTEXT
  5
1F2
102
{ACAD_XDICTIONARY
360
1F3
102
}
330
1F
100
AcDbEntity
  8
TITLE_BLOCK
100
AcDbMText
 10
756.9125
 20
46.543
 30
0.0
 40
4.876799999999999
 41
117.475
 71
     5
 72
     1
  1
----
  7
ONSHAPE-STANDARD-FIELDS
1001
ACAD
1000
ACAD_MTEXT_DEFINED_HEIGHT_BEGIN
1070
    46
1040
8.001
1000
ACAD_MTEXT_DEFINED_HEIGHT_END
  0
MTEXT
  5
1F8
330
1F
100
AcDbEntity
  8
TITLE_BLOCK
100
AcDbMText
 10
692.7190800000001
 20
39.49196
 30
0.0
 40
1.6256
 41
15.5575
 71
     1
 72
     1
  1
SIZE
  7
ONSHAPE-STANDARD
  0
MTEXT
  5
1F9
102
{ACAD_XDICTIONARY
360
1FA
102
}
330
1F
100
AcDbEntity
  8
TITLE_BLOCK
100
AcDbMText
 10
699.7625
 20
34.605
 30
0.0
 40
6.095999999999999
 41
15.875
 71
     5
 72
     1
  1
A1
  7
ONSHAPE-STANDARD-FIELDS
1001
ACAD
1000
ACAD_MTEXT_DEFINED_HEIGHT_BEGIN
1070
    46
1040
12.7
1000
ACAD_MTEXT_DEFINED_HEIGHT_END
  0
MTEXT
  5
1FF
330
1F
100
AcDbEntity
  8
TITLE_BLOCK
100
AcDbMText
 10
708.5940800000001
 20
39.49196
 30
0.0
 40
1.6256
 41
99.56799999999991
 71
     1
 72
     1
  1
DWG NO.
  7
ONSHAPE-STANDARD
  0
MTEXT
  5
200
102
{ACAD_XDICTIONARY
360
201
102
}
330
1F
100
AcDbEntity
  8
TITLE_BLOCK
100
AcDbMText
 10
758.5
 20
34.605
 30
0.0
 40
6.095999999999999
 41
101.5999999999999
 71
     5
 72
     1
  1
----
  7
ONSHAPE-STANDARD-FIELDS
1001
ACAD
1000
ACAD_MTEXT_DEFINED_HEIGHT_BEGIN
1070
    46
1040
12.7
1000
ACAD_MTEXT_DEFINED_HEIGHT_END
  0
MTEXT
  5
206
330
1F
100
AcDbEntity
  8
TITLE_BLOCK
100
AcDbMText
 10
810.19408
 20
39.49196
 30
0.0
 40
1.6256
 41
12.44600000000004
 71
     1
 72
     1
  1
REV.
  7
ONSHAPE-STANDARD
  0
MTEXT
  5
207
102
{ACAD_XDICTIONARY
360
208
102
}
330
1F
100
AcDbEntity
  8
TITLE_BLOCK
100
AcDbMText
 10
816.285
 20
34.605
 30
0.0
 40
6.095999999999999
 41
11.43000000000006
 71
     5
 72
     1
  1
-
  7
ONSHAPE-STANDARD-FIELDS
1001
ACAD
1000
ACAD_MTEXT_DEFINED_HEIGHT_BEGIN
1070
    46
1040
12.7
1000
ACAD_MTEXT_DEFINED_HEIGHT_END
  0
MTEXT
  5
20D
330
1F
100
AcDbEntity
  8
TITLE_BLOCK
100
AcDbMText
 10
692.7190800000001
 20
26.79196
 30
0.0
 40
1.6256
 41
27.38119999999994
 71
     1
 72
     1
  1
SCALE
  7
ONSHAPE-STANDARD
  0
MTEXT
  5
20E
102
{ACAD_XDICTIONARY
360
20F
102
}
330
1F
100
AcDbEntity
  8
TITLE_BLOCK
100
AcDbMText
 10
707.065
 20
24.1275
 30
0.0
 40
3.6576
 41
25.39999999999998
 71
     5
 72
     1
  1
1:1
  7
ONSHAPE-STANDARD-FIELDS
1001
ACAD
1000
ACAD_MTEXT_DEFINED_HEIGHT_BEGIN
1070
    46
1040
8.254999999999999
1000
ACAD_MTEXT_DEFINED_HEIGHT_END
  0
MTEXT
  5
214
330
1F
100
AcDbEntity
  8
TITLE_BLOCK
100
AcDbMText
 10
720.65908
 20
26.79196
 30
0.0
 40
1.6256
 41
56.62929999999997
 71
     1
 72
     1
  1
WEIGHT
  7
ONSHAPE-STANDARD
  0
MTEXT
  5
215
330
1F
100
AcDbEntity
  8
TITLE_BLOCK
100
AcDbMText
 10
748.6575
 20
24.1275
 30
0.0
 40
3.6576
 41
57.78499999999997
 71
     5
 72
     1
  1
 
  7
ONSHAPE-STANDARD-FIELDS
1001
ACAD
1000
ACAD_MTEXT_DEFINED_HEIGHT_BEGIN
1070
    46
1040
8.254999999999999
1000
ACAD_MTEXT_DEFINED_HEIGHT_END
  0
MTEXT
  5
216
330
1F
100
AcDbEntity
  8
TITLE_BLOCK
100
AcDbMText
 10
778.44408
 20
26.79196
 30
0.0
 40
1.6256
 41
43.56100000000004
 71
     1
 72
     1
  1
SHEET
  7
ONSHAPE-STANDARD
  0
MTEXT
  5
217
102
{ACAD_XDICTIONARY
360
218
102
}
330
1F
100
AcDbEntity
  8
TITLE_BLOCK
100
AcDbMText
 10
801.045
 20
24.1275
 30
0.0
 40
3.6576
 41
41.91000000000008
 71
     5
 72
     1
  1
1 of 1
  7
ONSHAPE-STANDARD-FIELDS
1001
ACAD
1000
ACAD_MTEXT_DEFINED_HEIGHT_BEGIN
1070
    46
1040
8.254999999999999
1000
ACAD_MTEXT_DEFINED_HEIGHT_END
  0
MTEXT
  5
21D
102
{ACAD_XDICTIONARY
360
21E
102
}
330
1F
100
AcDbEntity
  8
ANNOTATION_TEXT
 62
     7
 60
     1
100
AcDbMText
 10
285.5737243002228
 20
34.2780251669646
 30
0.0
 40
3.5
 41
0.0
 71
     2
 72
     1
  1

  7
ONSHAPE-STANDARD-VIEW-LABE
1001
ACAD
1000
ACAD_MTEXT_DEFINED_HEIGHT_BEGIN
1070
    46
1040
3.5
1000
ACAD_MTEXT_DEFINED_HEIGHT_END
  0
ENDSEC
  0
SECTION
  2
OBJECTS
  0
DICTIONARY
  5
C
330
0
100
AcDbDictionary
  3
ACAD_FIELDLIST
350
223
  3
ACAD_GROUP
350
D
  3
ACAD_LAYOUT
350
1A
  3
ACAD_MATERIAL
350
43
  3
ACAD_MLEADERSTYLE
350
6B
  3
ACAD_MLINESTYLE
350
17
  3
ACAD_PLOTSETTINGS
350
19
  3
ACAD_SCALELIST
350
47
  3
ACAD_VISUALSTYLE
350
2A
  3
ACDBHEADERROUNDTRIPXREC
350
275
  3
ACDBVARIABLEDICTIONARY
350
6E
  3
ONSHAPE_DATA
350
225
  0
DICTIONARY
  5
2A0
330
8
100
AcDbDictionary
280
     1
  3
ACAD_XREC_ROUNDTRIP
360
2A1
  0
DICTIONARY
  5
1B6
330
1B5
100
AcDbDictionary
280
     1
  0
DICTIONARY
  5
1BD
330
1BC
100
AcDbDictionary
280
     1
  0
DICTIONARY
  5
1C7
330
1C6
100
AcDbDictionary
280
     1
  0
DICTIONARY
  5
1CD
330
1CC
100
AcDbDictionary
280
     1
  0
DICTIONARY
  5
1E7
330
1E6
100
AcDbDictionary
280
     1
  0
DICTIONARY
  5
1ED
330
1EC
100
AcDbDictionary
280
     1
  0
DICTIONARY
  5
1F3
330
1F2
100
AcDbDictionary
280
     1
  0
DICTIONARY
  5
1FA
330
1F9
100
AcDbDictionary
280
     1
  0
DICTIONARY
  5
201
330
200
100
AcDbDictionary
280
     1
  0
DICTIONARY
  5
208
330
207
100
AcDbDictionary
280
     1
  0
DICTIONARY
  5
20F
330
20E
100
AcDbDictionary
280
     1
  0
DICTIONARY
  5
218
330
217
100
AcDbDictionary
280
     1
  0
DICTIONARY
  5
21E
330
21D
100
AcDbDictionary
280
     1
  3
ONSHAPE_VIEW_ID
360
21F
  0
ACAD_PROXY_OBJECT
  5
223
102
{ACAD_REACTORS
330
C
102
}
330
C
100
AcDbProxyObject
 90
      499
 91
      509
 93
       11
310
4600
330
1B9
330
1BA
330
1C0
330
1C1
330
1CA
330
1CB
330
1D0
330
1D1
330
1EA
330
1EB
330
1F0
330
1F1
330
1F6
330
1F7
330
1FD
330
1FE
330
204
330
205
330
20B
330
20C
330
212
330
213
330
21B
330
21C
 94
        0
  0
DICTIONARY
  5
D
102
{ACAD_REACTORS
330
C
102
}
330
C
100
AcDbDictionary
  0
DICTIONARY
  5
1A
102
{ACAD_REACTORS
330
C
102
}
330
C
100
AcDbDictionary
  0
DICTIONARY
  5
43
102
{ACAD_REACTORS
330
C
102
}
330
C
100
AcDbDictionary
  3
BYBLOCK
350
45
  3
BYLAYER
350
44
  3
GLOBAL
350
46
  0
DICTIONARY
  5
6B
102
{ACAD_REACTORS
330
C
102
}
330
C
100
AcDbDictionary
  3
STANDARD
350
6C
  0
DICTIONARY
  5
17
102
{ACAD_REACTORS
330
C
102
}
330
C
100
AcDbDictionary
  3
STANDARD
350
18
  0
DICTIONARY
  5
19
102
{ACAD_REACTORS
330
C
102
}
330
C
100
AcDbDictionary
  0
DICTIONARY
  5
47
102
{ACAD_REACTORS
330
C
102
}
330
C
100
AcDbDictionary
  3
A0
350
48
  3
A1
350
49
  3
A2
350
4A
  3
A3
350
4B
  3
A4
350
4C
  3
A5
350
4D
  3
A6
350
4E
  3
A7
350
4F
  3
A8
350
50
  3
A9
350
51
  3
B0
350
52
  3
B1
350
53
  3
B2
350
54
  3
B3
350
55
  3
B4
350
56
  3
B5
350
57
  3
B6
350
58
  3
B7
350
59
  3
B8
350
5A
  3
B9
350
5B
  3
C0
350
5C
  3
C1
350
5D
  3
C2
350
5E
  3
C3
350
5F
  3
C4
350
60
  3
C5
350
61
  3
C6
350
62
  3
C7
350
63
  3
C8
350
64
  3
C9
350
65
  3
D0
350
66
  3
D1
350
67
  3
D2
350
68
  0
DICTIONARY
  5
2A
102
{ACAD_REACTORS
330
C
102
}
330
C
100
AcDbDictionary
  3
2DWIREFRAME
350
2F
  3
BASIC
350
32
  3
BRIGHTEN
350
36
  3
COLORCHANGE
350
3A
  3
CONCEPTUAL
350
34
  3
DIM
350
35
  3
EDGECOLOROFF
350
3D
  3
FACEPATTERN
350
39
  3
FLAT
350
2B
  3
FLATWITHEDGES
350
2C
  3
GOURAUD
350
2D
  3
GOURAUDWITHEDGES
350
2E
  3
HIDDEN
350
31
  3
JITTEROFF
350
3B
  3
LINEPATTERN
350
38
  3
OVERHANGOFF
350
3C
  3
REALISTIC
350
33
  3
SHADED
350
42
  3
SHADED_WITH_EDGES
350
41
  3
SHADES_OF_GRAY
350
3E
  3
SKETCHY
350
3F
  3
THICKEN
350
37
  3
WIREFRAME
350
30
  3
X-RAY
350
40
  0
DICTIONARY
  5
275
102
{ACAD_REACTORS
330
C
102
}
330
C
100
AcDbDictionary
  3
CEPSNID
350
27F
  3
CEPSNTYPE
350
27E
  3
DIMSTYLEDATA
350
295
  3
FINGERPRINTGUID
350
280
  3
HYPERLINKBASE
350
278
  3
INSUNITS
350
27D
  3
LAYOUTDICT
350
27A
  3
LWETCUNION
350
27C
  3
PLOTSETDICT
350
27B
  3
PSVPSCALE
350
282
  3
PUCSBASE
350
285
  3
PUCSORGBACK
350
28B
  3
PUCSORGBOTTOM
350
287
  3
PUCSORGFRONT
350
28A
  3
PUCSORGLEFT
350
288
  3
PUCSORGRIGHT
350
289
  3
PUCSORGTOP
350
286
  3
PUCSORTHOREF
350
283
  3
PUCSORTHOVIEW
350
284
  3
STYLESHEET
350
279
  3
TSTACKALIGN
350
276
  3
TSTACKSIZE
350
277
  3
UCSBASE
350
28E
  3
UCSORGBACK
350
294
  3
UCSORGBOTTOM
350
290
  3
UCSORGFRONT
350
293
  3
UCSORGLEFT
350
291
  3
UCSORGRIGHT
350
292
  3
UCSORGTOP
350
28F
  3
UCSORTHOREF
350
28C
  3
UCSORTHOVIEW
350
28D
  3
VERSIONGUID
350
281
  0
DICTIONARY
  5
6E
102
{ACAD_REACTORS
330
C
102
}
330
C
100
AcDbDictionary
  3
CANNOSCALE
350
2A2
  3
CENTEREXE
350
29C
  3
CENTERLTYPEFILE
350
29D
  3
CMLEADERSTYLE
350
297
  3
CTABLESTYLE
350
296
  3
DIMASSOC
350
29E
  3
HIDETEXT
350
29F
  3
MSLTSCALE
350
2A3
  3
OLEFRAME
350
6F
  3
PSOLHEIGHT
350
299
  3
PSOLWIDTH
350
298
  0
DICTIONARY
  5
225
102
{ACAD_REACTORS
330
C
102
}
330
C
100
AcDbDictionary
280
     1
  3
DIM_UNITS
360
226
  3
ONSHAPE_ANG_TOL_PRECISION
360
229
  3
ONSHAPE_JOGDIMENSION_LOCK_
360
22B
  3
ONSHAPE_SHOWDIMENSIONSLINE
360
22C
  3
ONSHAPE_UNDERLINEOVERRIDEN
360
22A
  3
ONSHAPE_VSHARP_EXTENSION
360
228
  3
ONSHAPE_WELD_STANDARD
360
227
  0
XRECORD
  5
2A1
102
{ACAD_REACTORS
330
2A0
102
}
330
2A0
100
AcDbXrecord
102
VTR_0.000_0.000_1.000_1.000_VISUALSTYLE
340
2F
102
VTR_0.000_0.000_1.000_1.000_GRIDDISPLAY
 70
     3
102
VTR_0.000_0.000_1.000_1.000_GRIDMAJOR
 70
     5
102
VTR_0.000_0.000_1.000_1.000_DEFAULTLIGHTING
280
     1
102
VTR_0.000_0.000_1.000_1.000_DEFAULTLIGHTINGTYPE
 70
     1
102
VTR_0.000_0.000_1.000_1.000_BRIGHTNESS
141
0.0
102
VTR_0.000_0.000_1.000_1.000_CONTRAST
142
0.0
  0
XRECORD
  5
21F
102
{ACAD_REACTORS
330
21E
102
}
330
21E
100
AcDbXrecord
330
0
  0
MATERIAL
  5
45
102
{ACAD_REACTORS
330
43
102
}
102
{ACAD_XDICTIONARY
360
2A6
102
}
330
43
100
AcDbMaterial
  1
BYBLOCK
  0
MATERIAL
  5
44
102
{ACAD_REACTORS
330
43
102
}
102
{ACAD_XDICTIONARY
360
2A4
102
}
330
43
100
AcDbMaterial
  1
BYLAYER
  0
MATERIAL
  5
46
102
{ACAD_REACTORS
330
43
102
}
102
{ACAD_XDICTIONARY
360
2A8
102
}
330
43
100
AcDbMaterial
  1
GLOBAL
  0
ACAD_PROXY_OBJECT
  5
6C
102
{ACAD_REACTORS
330
6B
102
}
330
6B
100
AcDbProxyObject
 90
      499
 91
      505
 93
      610
310
40901902A4063FBFFFFFE0000000000000020400000000000020404214DD185B99185C990000000000000104090140501A00000000000004100000000000000041025764000000000000039000
340
14
340
0
340
11
340
0
 94
        0
1001
ACAD_MLEADERVER
1070
     2
  0
MLINESTYLE
  5
18
102
{ACAD_REACTORS
330
17
102
}
330
17
100
AcDbMlineStyle
  2
Standard
 70
     0
  3

 62
   256
 51
90.0
 52
90.0
 71
     2
 49
0.5
 62
   256
  6
BYLAYER
 49
-0.5
 62
   256
  6
BYLAYER
  0
ACAD_PROXY_OBJECT
  5
48
102
{ACAD_REACTORS
330
47
102
}
330
47
100
AcDbProxyObject
 90
      499
 91
      503
 93
       41
310
903313A31580
  0
ACAD_PROXY_OBJECT
  5
49
102
{ACAD_REACTORS
330
47
102
}
330
47
100
AcDbProxyObject
 90
      499
 91
      503
 93
      105
310
903313A324000000000000004000
  0
ACAD_PROXY_OBJECT
  5
4A
102
{ACAD_REACTORS
330
47
102
}
330
47
100
AcDbProxyObject
 90
      499
 91
      503
 93
      105
310
903313A344000000000000104000
  0
ACAD_PROXY_OBJECT
  5
4B
102
{ACAD_REACTORS
330
47
102
}
330
47
100
AcDbProxyObject
 90
      499
 91
      503
 93
      105
310
903313A354000000000000144000
  0
ACAD_PROXY_OBJECT
  5
4C
102
{ACAD_REACTORS
330
47
102
}
330
47
100
AcDbProxyObject
 90
      499
 91
      503
 93
      105
310
903313A384000000000000204000
  0
ACAD_PROXY_OBJECT
  5
4D
102
{ACAD_REACTORS
330
47
102
}
330
47
100
AcDbProxyObject
 90
      499
 91
      503
 93
      113
310
904313A31304000000000000244000
  0
ACAD_PROXY_OBJECT
  5
4E
102
{ACAD_REACTORS
330
47
102
}
330
47
100
AcDbProxyObject
 90
      499
 91
      503
 93
      113
310
904313A31364000000000000304000
  0
ACAD_PROXY_OBJECT
  5
4F
102
{ACAD_REACTORS
330
47
102
}
330
47
100
AcDbProxyObject
 90
      499
 91
      503
 93
      113
310
904313A32304000000000000344000
  0
ACAD_PROXY_OBJECT
  5
50
102
{ACAD_REACTORS
330
47
102
}
330
47
100
AcDbProxyObject
 90
      499
 91
      503
 93
      113
310
904313A333040000000000003E4000
  0
ACAD_PROXY_OBJECT
  5
51
102
{ACAD_REACTORS
330
47
102
}
330
47
100
AcDbProxyObject
 90
      499
 91
      503
 93
      113
310
904313A34304000000000000444000
  0
ACAD_PROXY_OBJECT
  5
52
102
{ACAD_REACTORS
330
47
102
}
330
47
100
AcDbProxyObject
 90
      499
 91
      503
 93
      113
310
904313A35304000000000000494000
  0
ACAD_PROXY_OBJECT
  5
53
102
{ACAD_REACTORS
330
47
102
}
330
47
100
AcDbProxyObject
 90
      499
 91
      503
 93
      121
310
905313A3130304000000000000594000
  0
ACAD_PROXY_OBJECT
  5
54
102
{ACAD_REACTORS
330
47
102
}
330
47
100
AcDbProxyObject
 90
      499
 91
      503
 93
      105
310
903323A310000000000000010100
  0
ACAD_PROXY_OBJECT
  5
55
102
{ACAD_REACTORS
330
47
102
}
330
47
100
AcDbProxyObject
 90
      499
 91
      503
 93
      105
310
903343A310000000000000410100
  0
ACAD_PROXY_OBJECT
  5
56
102
{ACAD_REACTORS
330
47
102
}
330
47
100
AcDbProxyObject
 90
      499
 91
      503
 93
      105
310
903383A310000000000000810100
  0
ACAD_PROXY_OBJECT
  5
57
102
{ACAD_REACTORS
330
47
102
}
330
47
100
AcDbProxyObject
 90
      499
 91
      503
 93
      113
310
90431303A310000000000000910100
  0
ACAD_PROXY_OBJECT
  5
58
102
{ACAD_REACTORS
330
47
102
}
330
47
100
AcDbProxyObject
 90
      499
 91
      503
 93
      121
310
9053130303A310000000000001650100
  0
ACAD_PROXY_OBJECT
  5
59
102
{ACAD_REACTORS
330
47
102
}
330
47
100
AcDbProxyObject
 90
      499
 91
      503
 93
      257
310
90E312F31323822203D2031272D3022000000000000200FC000000000000284000
  0
ACAD_PROXY_OBJECT
  5
5A
102
{ACAD_REACTORS
330
47
102
}
330
47
100
AcDbProxyObject
 90
      499
 91
      503
 93
      249
310
90D312F363422203D2031272D3022000000000000240FC000000000000284000
  0
ACAD_PROXY_OBJECT
  5
5B
102
{ACAD_REACTORS
330
47
102
}
330
47
100
AcDbProxyObject
 90
      499
 91
      503
 93
      249
310
90D312F333222203D2031272D3022000000000000280FC000000000000284000
  0
ACAD_PROXY_OBJECT
  5
5C
102
{ACAD_REACTORS
330
47
102
}
330
47
100
AcDbProxyObject
 90
      499
 91
      503
 93
      249
310
90D312F313622203D2031272D30220000000000002C0FC000000000000284000
  0
ACAD_PROXY_OBJECT
  5
5D
102
{ACAD_REACTORS
330
47
102
}
330
47
100
AcDbProxyObject
 90
      499
 91
      503
 93
      249
310
90D332F333222203D2031272D30220000000000002E0FC000000000000284000
  0
ACAD_PROXY_OBJECT
  5
5E
102
{ACAD_REACTORS
330
47
102
}
330
47
100
AcDbProxyObject
 90
      499
 91
      503
 93
      241
310
90C312F3822203D2031272D3022000000000000300FC000000000000284000
  0
ACAD_PROXY_OBJECT
  5
5F
102
{ACAD_REACTORS
330
47
102
}
330
47
100
AcDbProxyObject
 90
      499
 91
      503
 93
      249
310
90D332F313622203D2031272D3022000000000000320FC000000000000284000
  0
ACAD_PROXY_OBJECT
  5
60
102
{ACAD_REACTORS
330
47
102
}
330
47
100
AcDbProxyObject
 90
      499
 91
      503
 93
      241
310
90C312F3422203D2031272D3022000000000000340FC000000000000284000
  0
ACAD_PROXY_OBJECT
  5
61
102
{ACAD_REACTORS
330
47
102
}
330
47
100
AcDbProxyObject
 90
      499
 91
      503
 93
      241
310
90C332F3822203D2031272D3022000000000000360FC000000000000284000
  0
ACAD_PROXY_OBJECT
  5
62
102
{ACAD_REACTORS
330
47
102
}
330
47
100
AcDbProxyObject
 90
      499
 91
      503
 93
      241
310
90C312F3222203D2031272D3022000000000000380FC000000000000284000
  0
ACAD_PROXY_OBJECT
  5
63
102
{ACAD_REACTORS
330
47
102
}
330
47
100
AcDbProxyObject
 90
      499
 91
      503
 93
      241
310
90C332F3422203D2031272D30220000000000003A0FC000000000000284000
  0
ACAD_PROXY_OBJECT
  5
64
102
{ACAD_REACTORS
330
47
102
}
330
47
100
AcDbProxyObject
 90
      499
 91
      503
 93
      161
310
90A3122203D2031272D30224000000000000284000
  0
ACAD_PROXY_OBJECT
  5
65
102
{ACAD_REACTORS
330
47
102
}
330
47
100
AcDbProxyObject
 90
      499
 91
      503
 93
      257
310
90E312D312F3222203D2031272D30220000000000003E0FC000000000000284000
  0
ACAD_PROXY_OBJECT
  5
66
102
{ACAD_REACTORS
330
47
102
}
330
47
100
AcDbProxyObject
 90
      499
 91
      503
 93
      225
310
90A3322203D2031272D302200000000000002100000000000000284000
  0
ACAD_PROXY_OBJECT
  5
67
102
{ACAD_REACTORS
330
47
102
}
330
47
100
AcDbProxyObject
 90
      499
 91
      503
 93
      225
310
90A3622203D2031272D302200000000000006100000000000000284000
  0
ACAD_PROXY_OBJECT
  5
68
102
{ACAD_REACTORS
330
47
102
}
330
47
100
AcDbProxyObject
 90
      499
 91
      503
 93
      249
310
90D31272D3022203D2031272D30220000000000000A100000000000000284000
  0
ACAD_PROXY_OBJECT
  5
2F
102
{ACAD_REACTORS
330
2A
102
}
330
2A
100
AcDbProxyObject
 90
      499
 91
      501
 93
      436
310
42CC9915DA5C99599C985B595049028333333333333E33F0000000000000F90107901411070040501600405405064090741402480A0340
1001
ACAD
1000
AcDbSavedByObjectVersion
1070
     0
  0
ACAD_PROXY_OBJECT
  5
32
102
{ACAD_REACTORS
330
2A
102
}
330
2A
100
AcDbProxyObject
 90
      499
 91
      501
 93
      388
310
4150985CDA58D07406404333333333333E33F0000000000000F90107A41107004050150841D405064090741402480A0350
1001
ACAD
1000
AcDbSavedByObjectVersion
1070
     0
  0
ACAD_PROXY_OBJECT
  5
36
102
{ACAD_REACTORS
330
2A
102
}
330
2A
100
AcDbProxyObject
 90
      499
 91
      501
 93
      428
310
42109C9A59DA1D195B90C409028333333333333E33F0000000000000F9010790141107004050150841D405064090741402480A029950
1001
ACAD
1000
AcDbSavedByObjectVersion
1070
     0
  0
ACAD_PROXY_OBJECT
  5
3A
102
{ACAD_REACTORS
330
2A
102
}
330
2A
100
AcDbProxyObject
 90
      499
 91
      501
 93
      452
310
42D0DBDB1BDC90DA185B99D95104090240C333333333333E33F0000000000000F90108901411070040501508421405064090741402480A0350
1001
ACAD
1000
AcDbSavedByObjectVersion
1070
     0
  0
ACAD_PROXY_OBJECT
  5
34
102
{ACAD_REACTORS
330
2A
102
}
330
2A
100
AcDbProxyObject
 90
      499
 91
      501
 93
      500
310
4290DBDB98D95C1D1D585B10940D028333333333333E33F0000000000000F90107902409070040501000000000018199010841D405064090740C02480A0340
1001
ACAD
1000
AcDbSavedByObjectVersion
1070
     0
  0
ACAD_PROXY_OBJECT
  5
35
102
{ACAD_REACTORS
330
2A
102
}
330
2A
100
AcDbProxyObject
 90
      499
 91
      501
 93
      412
310
40D11A5B50B409028333333333333E33F0000000000000F9010790141107004050150841D405064090741402480A02677FFFFFD0
1001
ACAD
1000
AcDbSavedByObjectVersion
1070
     0
  0
ACAD_PROXY_OBJECT
  5
3D
102
{ACAD_REACTORS
330
2A
102
}
330
2A
100
AcDbProxyObject
 90
      499
 91
      501
 93
      452
310
43115919D950DBDB1BDC93D999916409028333333333333E33F0000000000000F9010790141107004050150841D405064090741402480A0350
1001
ACAD
1000
AcDbSavedByObjectVersion
1070
     0
  0
ACAD_PROXY_OBJECT
  5
39
102
{ACAD_REACTORS
330
2A
102
}
330
2A
100
AcDbProxyObject
 90
      499
 91
      501
 93
      444
310
42D19858D95C185D1D195C9B90F409028333333333333E33F0000000000000F9010790141107004050150841D405064090741402480A0350
1001
ACAD
1000
AcDbSavedByObjectVersion
1070
     0
  0
ACAD_PROXY_OBJECT
  5
2B
102
{ACAD_REACTORS
330
2A
102
}
330
2A
100
AcDbProxyObject
 90
      499
 91
      501
 93
      380
310
41119B185D240901404333333333333E33F0000000000000F9010740A907004050150841D405064090741402480A1B50
1001
ACAD
1000
AcDbSavedByObjectVersion
1070
     0
  0
ACAD_PROXY_OBJECT
  5
2C
102
{ACAD_REACTORS
330
2A
102
}
330
2A
100
AcDbProxyObject
 90
      499
 91
      501
 93
      468
310
43519B185D15DA5D1A115919D95CD0140901404333333333333E33F0000000000000F90107409019070040501600405405064090741402480A1B50
1001
ACAD
1000
AcDbSavedByObjectVersion
1070
     0
  0
ACAD_PROXY_OBJECT
  5
2D
102
{ACAD_REACTORS
330
2A
102
}
330
2A
100
AcDbProxyObject
 90
      499
 91
      501
 93
      404
310
41D1DBDD5C985D5910240902404333333333333E33F0000000000000F9010740A9070040501641D405064090741402480A1B50
1001
ACAD
1000
AcDbSavedByObjectVersion
1070
     0
  0
ACAD_PROXY_OBJECT
  5
2E
102
{ACAD_REACTORS
330
2A
102
}
330
2A
100
AcDbProxyObject
 90
      499
 91
      501
 93
      492
310
4411DBDD5C985D5915DA5D1A115919D95CD0340902404333333333333E33F0000000000000F90107409019070040501600405405064090741402480A1B50
1001
ACAD
1000
AcDbSavedByObjectVersion
1070
     0
  0
ACAD_PROXY_OBJECT
  5
31
102
{ACAD_REACTORS
330
2A
102
}
330
2A
100
AcDbProxyObject
 90
      499
 91
      501
 93
      476
310
41921A5919195B90640502408333333333333E33F0000000000000F901079024090700405020000000000001110200405405064090740C02480A0340
1001
ACAD
1000
AcDbSavedByObjectVersion
1070
     0
  0
ACAD_PROXY_OBJECT
  5
3B
102
{ACAD_REACTORS
330
2A
102
}
330
2A
100
AcDbProxyObject
 90
      499
 91
      501
 93
      428
310
42529A5D1D195C93D999914409028333333333333E33F0000000000000F9010790141107004050150A41D405064090741402480A0350
1001
ACAD
1000
AcDbSavedByObjectVersion
1070
     0
  0
ACAD_PROXY_OBJECT
  5
38
102
{ACAD_REACTORS
330
2A
102
}
330
2A
100
AcDbProxyObject
 90
      499
 91
      501
 93
      444
310
42D31A5B995C185D1D195C9B90E409028333333333333E33F0000000000000F9010790141107004050750841D405064090741402483A0350
1001
ACAD
1000
AcDbSavedByObjectVersion
1070
     0
  0
ACAD_PROXY_OBJECT
  5
3C
102
{ACAD_REACTORS
330
2A
102
}
330
2A
100
AcDbProxyObject
 90
      499
 91
      501
 93
      444
310
42D3DD995C9A185B99D3D999915409028333333333333E33F0000000000000F9010790141107004050150941D405064090741402480A0350
1001
ACAD
1000
AcDbSavedByObjectVersion
1070
     0
  0
ACAD_PROXY_OBJECT
  5
33
102
{ACAD_REACTORS
330
2A
102
}
330
2A
100
AcDbProxyObject
 90
      499
 91
      501
 93
      428
310
425499585B1A5CDD1A58D08409038333333333333E33F0000000000000F9010740A907004050150800405405064090740C02480A1B40
1001
ACAD
1000
AcDbSavedByObjectVersion
1070
     0
  0
ACAD_PROXY_OBJECT
  5
42
102
{ACAD_REACTORS
330
2A
102
}
330
2A
100
AcDbProxyObject
 90
      499
 91
      501
 93
      420
310
4194DA1859195911B40902404333333333333E33F0000000000000F9010740A41107004050150800405405064090840C02480A0B40
1001
ACAD
1000
AcDbSavedByObjectVersion
1070
     0
  0
ACAD_PROXY_OBJECT
  5
41
102
{ACAD_REACTORS
330
2A
102
}
330
2A
100
AcDbProxyObject
 90
      499
 91
      501
 93
      516
310
4454DA18591959081DDA5D1A08195919D95CD1A40902404333333333333E33F0000000000000F901074090142907004050250800405405064090740C02480A0B40
1001
ACAD
1000
AcDbSavedByObjectVersion
1070
     0
  0
ACAD_PROXY_OBJECT
  5
3E
102
{ACAD_REACTORS
330
2A
102
}
330
2A
100
AcDbProxyObject
 90
      499
 91
      501
 93
      532
310
4394DA1859195CC81BD98811DC985E5174090240C333333333333E33F0000000000000F901079024090741D01000000000000111010841D405064090740C02480A0340
1001
ACAD
1000
AcDbSavedByObjectVersion
1070
     0
  0
ACAD_PROXY_OBJECT
  5
3F
102
{ACAD_REACTORS
330
2A
102
}
330
2A
100
AcDbProxyObject
 90
      499
 91
      501
 93
      476
310
41D4DAD95D18DA1E51840502408333333333333E33F0000000000000F901079024090741D01000000000000111010B41D405064090741802480A0340
1001
ACAD
1000
AcDbSavedByObjectVersion
1070
     0
  0
ACAD_PROXY_OBJECT
  5
37
102
{ACAD_REACTORS
330
2A
102
}
330
2A
100
AcDbProxyObject
 90
      499
 91
      501
 93
      412
310
41D51A1A58DAD95B90D409028333333333333E33F0000000000000F9010790141107004050150C41D405064090741402480A0350
1001
ACAD
1000
AcDbSavedByObjectVersion
1070
     0
  0
ACAD_PROXY_OBJECT
  5
30
102
{ACAD_REACTORS
330
2A
102
}
330
2A
100
AcDbProxyObject
 90
      499
 91
      501
 93
      420
310
4255DA5C99599C985B595059028333333333333E33F0000000000000F90107901411070040501600405405064090740C02480A0340
1001
ACAD
1000
AcDbSavedByObjectVersion
1070
     0
  0
ACAD_PROXY_OBJECT
  5
40
102
{ACAD_REACTORS
330
2A
102
}
330
2A
100
AcDbProxyObject
 90
      499
 91
      501
 93
      404
310
41560B54985E51940902404000000000000E03F0000000000000F9010740501907004050150841D405064090740C02480A1B40
1001
ACAD
1000
AcDbSavedByObjectVersion
1070
     0
  0
XRECORD
  5
27F
102
{ACAD_REACTORS
330
275
102
}
330
275
100
AcDbXrecord
340
0
  0
XRECORD
  5
27E
102
{ACAD_REACTORS
330
275
102
}
330
275
100
AcDbXrecord
 90
        0
  0
XRECORD
  5
295
102
{ACAD_REACTORS
330
275
102
}
330
275
100
AcDbXrecord
1000
DSTYLE
1002
{
1070
   179
 70
     1
1070
   143
 40
0.03937
1070
   285
 70
     8
1070
   176
 70
     7
1070
   177
 70
     7
1070
   178
 70
     7
1070
   371
 70
    13
1070
   372
 70
    13
1070
   340
340
72
1070
   140
 40
3.5
1070
   288
 70
     1
1002
}
  0
XRECORD
  5
280
102
{ACAD_REACTORS
330
275
102
}
330
275
100
AcDbXrecord
  1
{62727576-3770-6571-e4b6-7762723931f4}
  0
XRECORD
  5
278
102
{ACAD_REACTORS
330
275
102
}
330
275
100
AcDbXrecord
  1

  0
XRECORD
  5
27D
102
{ACAD_REACTORS
330
275
102
}
330
275
100
AcDbXrecord
 90
        4
  0
XRECORD
  5
27A
102
{ACAD_REACTORS
330
275
102
}
330
275
100
AcDbXrecord
340
1A
  0
XRECORD
  5
27C
102
{ACAD_REACTORS
330
275
102
}
330
275
100
AcDbXrecord
 90
    10269
  0
XRECORD
  5
27B
102
{ACAD_REACTORS
330
275
102
}
330
275
100
AcDbXrecord
340
19
  0
XRECORD
  5
282
102
{ACAD_REACTORS
330
275
102
}
330
275
100
AcDbXrecord
 40
0.0
  0
XRECORD
  5
285
102
{ACAD_REACTORS
330
275
102
}
330
275
100
AcDbXrecord
340
0
  0
XRECORD
  5
28B
102
{ACAD_REACTORS
330
275
102
}
330
275
100
AcDbXrecord
 10
0.0
 20
0.0
 30
0.0
  0
XRECORD
  5
287
102
{ACAD_REACTORS
330
275
102
}
330
275
100
AcDbXrecord
 10
0.0
 20
0.0
 30
0.0
  0
XRECORD
  5
28A
102
{ACAD_REACTORS
330
275
102
}
330
275
100
AcDbXrecord
 10
0.0
 20
0.0
 30
0.0
  0
XRECORD
  5
288
102
{ACAD_REACTORS
330
275
102
}
330
275
100
AcDbXrecord
 10
0.0
 20
0.0
 30
0.0
  0
XRECORD
  5
289
102
{ACAD_REACTORS
330
275
102
}
330
275
100
AcDbXrecord
 10
0.0
 20
0.0
 30
0.0
  0
XRECORD
  5
286
102
{ACAD_REACTORS
330
275
102
}
330
275
100
AcDbXrecord
 10
0.0
 20
0.0
 30
0.0
  0
XRECORD
  5
283
102
{ACAD_REACTORS
330
275
102
}
330
275
100
AcDbXrecord
340
0
  0
XRECORD
  5
284
102
{ACAD_REACTORS
330
275
102
}
330
275
100
AcDbXrecord
 70
     0
  0
XRECORD
  5
279
102
{ACAD_REACTORS
330
275
102
}
330
275
100
AcDbXrecord
  1

  0
XRECORD
  5
276
102
{ACAD_REACTORS
330
275
102
}
330
275
100
AcDbXrecord
 90
        1
  0
XRECORD
  5
277
102
{ACAD_REACTORS
330
275
102
}
330
275
100
AcDbXrecord
 90
       70
  0
XRECORD
  5
28E
102
{ACAD_REACTORS
330
275
102
}
330
275
100
AcDbXrecord
340
0
  0
XRECORD
  5
294
102
{ACAD_REACTORS
330
275
102
}
330
275
100
AcDbXrecord
 10
0.0
 20
0.0
 30
0.0
  0
XRECORD
  5
290
102
{ACAD_REACTORS
330
275
102
}
330
275
100
AcDbXrecord
 10
0.0
 20
0.0
 30
0.0
  0
XRECORD
  5
293
102
{ACAD_REACTORS
330
275
102
}
330
275
100
AcDbXrecord
 10
0.0
 20
0.0
 30
0.0
  0
XRECORD
  5
291
102
{ACAD_REACTORS
330
275
102
}
330
275
100
AcDbXrecord
 10
0.0
 20
0.0
 30
0.0
  0
XRECORD
  5
292
102
{ACAD_REACTORS
330
275
102
}
330
275
100
AcDbXrecord
 10
0.0
 20
0.0
 30
0.0
  0
XRECORD
  5
28F
102
{ACAD_REACTORS
330
275
102
}
330
275
100
AcDbXrecord
 10
0.0
 20
0.0
 30
0.0
  0
XRECORD
  5
28C
102
{ACAD_REACTORS
330
275
102
}
330
275
100
AcDbXrecord
340
0
  0
XRECORD
  5
28D
102
{ACAD_REACTORS
330
275
102
}
330
275
100
AcDbXrecord
 70
     0
  0
XRECORD
  5
281
102
{ACAD_REACTORS
330
275
102
}
330
275
100
AcDbXrecord
  1
{FAEB1C32-E019-11D5-929B-00C0DF256EC4}
  0
DICTIONARYVAR
  5
2A2
102
{ACAD_REACTORS
330
6E
102
}
330
6E
100
DictionaryVariables
280
     0
  1
1:1
  0
DICTIONARYVAR
  5
29C
102
{ACAD_REACTORS
330
6E
102
}
330
6E
100
DictionaryVariables
280
     0
  1
3.500000
  0
DICTIONARYVAR
  5
29D
102
{ACAD_REACTORS
330
6E
102
}
330
6E
100
DictionaryVariables
280
     0
  1
MM.LIN
  0
DICTIONARYVAR
  5
297
102
{ACAD_REACTORS
330
6E
102
}
330
6E
100
DictionaryVariables
280
     0
  1
Standard
  0
DICTIONARYVAR
  5
296
102
{ACAD_REACTORS
330
6E
102
}
330
6E
100
DictionaryVariables
280
     0
  1
Onshape-Standard
  0
DICTIONARYVAR
  5
29E
102
{ACAD_REACTORS
330
6E
102
}
330
6E
100
DictionaryVariables
280
     0
  1
2
  0
DICTIONARYVAR
  5
29F
102
{ACAD_REACTORS
330
6E
102
}
330
6E
100
DictionaryVariables
280
     0
  1
1
  0
DICTIONARYVAR
  5
2A3
102
{ACAD_REACTORS
330
6E
102
}
330
6E
100
DictionaryVariables
280
     0
  1
1
  0
DICTIONARYVAR
  5
6F
102
{ACAD_REACTORS
330
6E
102
}
330
6E
100
DictionaryVariables
280
     0
  1
0
  0
DICTIONARYVAR
  5
299
102
{ACAD_REACTORS
330
6E
102
}
330
6E
100
DictionaryVariables
280
     0
  1
80.000000
  0
DICTIONARYVAR
  5
298
102
{ACAD_REACTORS
330
6E
102
}
330
6E
100
DictionaryVariables
280
     0
  1
5.000000
  0
XRECORD
  5
226
102
{ACAD_REACTORS
330
225
102
}
330
225
100
AcDbXrecord
 70
     4
  0
XRECORD
  5
229
102
{ACAD_REACTORS
330
225
102
}
330
225
100
AcDbXrecord
 90
        0
  0
XRECORD
  5
22B
102
{ACAD_REACTORS
330
225
102
}
330
225
100
AcDbXrecord
 90
        0
  0
ACAD_PROXY_OBJECT
  5
22C
102
{ACAD_REACTORS
330
225
102
}
330
225
100
AcDbProxyObject
 90
      499
 91
      510
 93
       34
310
40C8804040
  0
ACAD_PROXY_OBJECT
  5
22A
102
{ACAD_REACTORS
330
225
102
}
330
225
100
AcDbProxyObject
 90
      499
 91
      510
 93
       34
310
40C8804040
  0
XRECORD
  5
228
102
{ACAD_REACTORS
330
225
102
}
330
225
100
AcDbXrecord
 90
        0
  0
XRECORD
  5
227
102
{ACAD_REACTORS
330
225
102
}
330
225
100
AcDbXrecord
 90
        1
  0
DICTIONARY
  5
2A6
330
45
100
AcDbDictionary
280
     1
  3
ACAD_XREC_ROUNDTRIP
360
2A7
  0
DICTIONARY
  5
2A4
330
44
100
AcDbDictionary
280
     1
  3
ACAD_XREC_ROUNDTRIP
360
2A5
  0
DICTIONARY
  5
2A8
330
46
100
AcDbDictionary
280
     1
  3
ACAD_XREC_ROUNDTRIP
360
2A9
  0
XRECORD
  5
2A7
102
{ACAD_REACTORS
330
2A6
102
}
330
2A6
100
AcDbXrecord
102
MATERIAL
148
0.0
149
0.0
149
0.0
 93
        0
 94
      127
282
     0
 72
     1
 77
     1
171
     1
175
     1
179
     1
273
     0
  0
XRECORD
  5
2A5
102
{ACAD_REACTORS
330
2A4
102
}
330
2A4
100
AcDbXrecord
102
MATERIAL
148
0.0
149
0.0
149
0.0
 93
        0
 94
      127
282
     0
 72
     1
 77
     1
171
     1
175
     1
179
     1
273
     0
  0
XRECORD
  5
2A9
102
{ACAD_REACTORS
330
2A8
102
}
330
2A8
100
AcDbXrecord
102
MATERIAL
148
0.0
149
0.0
149
0.0
 93
        0
 94
      127
282
     0
 72
     1
 77
     1
171
     1
175
     1
179
     1
273
     0
  0
ENDSEC
  0
EOF
